<svg width="33" height="33" viewBox="0 0 33 33" fill="none" xmlns="http://www.w3.org/2000/svg">
<path d="M2.83335 17.9C2.56668 17.6333 2.43868 17.3222 2.44935 16.9667C2.46001 16.6111 2.59912 16.3 2.86668 16.0333C3.13335 15.7889 3.44446 15.6609 3.80001 15.6493C4.15557 15.6378 4.46668 15.7658 4.73335 16.0333L9.46668 20.7667L9.93335 21.2333L10.4 21.7C10.6667 21.9667 10.7947 22.2778 10.784 22.6333C10.7733 22.9889 10.6342 23.3 10.3667 23.5667C10.1 23.8111 9.7889 23.9391 9.43335 23.9507C9.07779 23.9622 8.76668 23.8342 8.50001 23.5667L2.83335 17.9ZM16.9667 20.7333L28.3 9.39999C28.5667 9.13332 28.8778 9.00577 29.2333 9.01732C29.5889 9.02888 29.9 9.16754 30.1667 9.43332C30.4111 9.69999 30.5391 10.0111 30.5507 10.3667C30.5622 10.7222 30.4342 11.0333 30.1667 11.3L17.9 23.5667C17.6333 23.8333 17.3222 23.9667 16.9667 23.9667C16.6111 23.9667 16.3 23.8333 16.0333 23.5667L10.3667 17.9C10.1222 17.6555 10 17.3502 10 16.984C10 16.6178 10.1222 16.3009 10.3667 16.0333C10.6333 15.7667 10.9502 15.6333 11.3173 15.6333C11.6845 15.6333 12.0009 15.7667 12.2667 16.0333L16.9667 20.7333ZM22.6 11.3333L17.9 16.0333C17.6556 16.2778 17.3502 16.4 16.984 16.4C16.6178 16.4 16.3009 16.2778 16.0333 16.0333C15.7667 15.7667 15.6333 15.4502 15.6333 15.084C15.6333 14.7178 15.7667 14.4009 16.0333 14.1333L20.7333 9.43332C20.9778 9.18888 21.2836 9.06666 21.6507 9.06666C22.0178 9.06666 22.3342 9.18888 22.6 9.43332C22.8667 9.69999 23 10.0164 23 10.3827C23 10.7489 22.8667 11.0658 22.6 11.3333Z" fill="#388736"/>
</svg>
