<svg width="528" height="409" viewBox="0 0 528 409" fill="none" xmlns="http://www.w3.org/2000/svg">
<path d="M335.393 184.022C335.061 184.354 334.198 184.39 333.477 184.101C332.679 183.782 332.916 183.545 334.081 183.497C335.135 183.454 335.725 183.69 335.393 184.022Z" fill="#F8A151"/>
<path d="M361.664 194.796C361.664 195.003 360.876 195.791 359.914 196.546C358.328 197.789 358.293 197.754 359.536 196.168C360.843 194.502 361.664 193.973 361.664 194.796Z" fill="#F8A151"/>
<path d="M356.664 210.796C356.664 211.003 355.876 211.791 354.914 212.546C353.328 213.789 353.293 213.754 354.536 212.168C355.843 210.502 356.664 209.973 356.664 210.796Z" fill="#F8A151"/>
<path d="M377.664 205.988C377.664 206.263 376.764 206.007 375.664 205.418C374.564 204.829 373.664 204.123 373.664 203.848C373.664 203.573 374.564 203.829 375.664 204.418C376.764 205.007 377.664 205.713 377.664 205.988Z" fill="#F8A151"/>
<path d="M345.183 225.918C347.024 225.918 346.524 227.119 342.024 229.619C341.134 229.96 340.251 228.899 340.601 228.333C341.188 227.382 342.524 226.119 345.183 225.918Z" fill="#F8A151"/>
<path d="M467.904 191.172C478.827 194.08 487.719 202.005 490.313 211.147C491.907 216.763 492.271 217.008 496.431 215.27C500.2 213.695 510.752 213.213 512.808 214.521C513.451 214.929 514.463 219.63 515.058 224.966C515.214 226.365 515.364 227.628 515.499 228.769C516.186 234.557 516.498 237.185 515.337 238.362C514.373 239.34 512.39 239.315 508.759 239.27C507.898 239.259 506.945 239.247 505.89 239.247C495.162 239.247 493.605 239.763 484.407 246.365C482.293 247.883 482.125 247.842 481.251 245.608C479.875 242.089 473.244 236.129 468.14 233.824C465.116 232.458 461.493 231.784 457.096 231.769C451.472 231.75 449.784 232.205 445.096 235.003C438.435 238.979 433.719 245.642 432.122 253.333C431.053 258.483 430.839 258.785 429.267 257.362C423.889 252.495 410.807 249.679 403.157 251.741C398.892 252.891 391.052 259.331 390.031 262.524C389.706 263.537 388.104 263.458 382.258 262.138L381.848 262.046C377.842 261.141 375.088 257.459 375.351 253.361C375.603 249.444 376.635 244.505 377.648 242.371C379.971 237.476 388.448 228.934 392.777 227.125C397.127 225.308 405.308 225.372 409.826 227.26C411.817 228.092 413.514 228.655 413.595 228.51C413.676 228.365 414.241 225.742 414.85 222.68C418.761 203.02 434.999 189.936 455.64 189.813C459.49 189.79 465.009 190.401 467.904 191.172Z" fill="#F8A151"/>
<path d="M508.422 253.118C510.192 253.872 512.717 255.657 514.033 257.085C516.276 259.517 516.392 260.22 515.89 268.273C515.595 273 515.111 277.109 514.814 277.406C514.517 277.703 512.615 277.399 510.588 276.73C505.856 275.168 498.646 275.986 495.276 278.468C492.819 280.277 489.924 284.927 488.72 288.997C488.264 290.541 486.754 290.747 475.913 290.747C464.566 290.747 463.246 290.948 458.69 293.374L456.879 294.338C455.053 295.31 452.797 294.887 451.447 293.318C448.39 289.764 448.462 285.054 451.64 280.747C453.015 278.883 454.14 276.578 454.14 275.624C454.14 274.67 455.656 272.282 457.508 270.318C460.376 267.277 461.527 266.748 465.258 266.751C467.871 266.753 470.961 267.56 472.914 268.751C474.715 269.849 476.425 270.747 476.715 270.747C477.005 270.747 477.904 269.162 478.714 267.225C480.478 263.003 486.486 256.134 490.64 253.591C494.281 251.362 503.712 251.111 508.422 253.118Z" fill="#F8A151"/>
<path d="M174.571 205.65C174.308 205.913 173.316 205.317 172.366 204.326C170.717 202.604 170.738 202.582 172.845 203.847C174.057 204.576 174.834 205.387 174.571 205.65Z" fill="#F8A151"/>
<path d="M192.823 193.935C192.504 194.732 192.267 194.495 192.219 193.33C192.176 192.276 192.412 191.686 192.744 192.018C193.076 192.35 193.112 193.213 192.823 193.935Z" fill="#F8A151"/>
<path d="M200.14 210.092C200.14 210.282 199.128 211.294 197.89 212.342C197.661 212.536 197.351 212.227 197.545 211.997C199.335 209.883 200.14 209.292 200.14 210.092Z" fill="#F8A151"/>
<path d="M202.64 205.747C201.645 206.847 200.112 207.718 199.235 207.684C198.147 207.64 198.322 207.345 199.788 206.754C200.969 206.277 202.233 205.406 202.597 204.817C202.96 204.229 203.526 203.747 203.854 203.747C204.182 203.747 203.635 204.647 202.64 205.747Z" fill="#F8A151"/>
<path d="M205.666 201.554C205.359 201.862 204.552 201.555 203.873 200.871C202.893 199.883 203.008 199.769 204.433 200.311C205.419 200.687 205.974 201.246 205.666 201.554Z" fill="#F8A151"/>
<path d="M208.571 193.65C208.308 193.913 207.316 193.317 206.366 192.326C204.717 190.604 204.738 190.582 206.845 191.847C208.057 192.576 208.834 193.387 208.571 193.65Z" fill="#F8A151"/>
<path d="M238.467 158.661C239.453 159.849 239.321 159.894 237.64 158.939C236.54 158.315 234.515 156.854 233.14 155.692C232.841 155.439 233.163 154.971 233.506 155.16L233.967 155.414C235.797 156.422 237.822 157.883 238.467 158.661Z" fill="#F8A151"/>
<path d="M253.5 99.9972C256 99.9972 252 104.448 250.5 105.448C248.188 106.989 248 105.926 250 103.872C252.04 102.238 252.256 99.9972 253.5 99.9972Z" fill="#66A164"/>
<path d="M223.5 59.4481C222.911 60.5481 217.775 64.0352 217.5 64.0352C217.225 64.0352 218.411 61.378 219 60.278C219.589 59.178 222.725 55.4481 223 55.4481C223.275 55.4481 224.089 58.3481 223.5 59.4481Z" fill="#66A164"/>
<path d="M210.848 55.2461C212.872 56.417 210.741 58.8393 208.564 59.6923C206.136 60.6432 203.097 61.7745 202.14 61.9886C202.088 62.0004 202.038 62.01 201.991 62.0177C198.832 62.5357 204.115 56.191 207.115 55.0743C208.445 54.5793 209.87 54.6806 210.848 55.2461Z" fill="#66A164"/>
<path d="M200.773 51.9972C199.551 52.9872 196.181 53.7102 195.279 53.6652C194.378 53.6212 194.346 51.6243 196.134 50.8433C198.332 49.8813 199.422 48.6942 199.5 47.1742C199.602 45.1942 202.063 46.5282 202.5 48.2472C202.815 49.4852 202.184 50.8552 200.773 51.9972Z" fill="#66A164"/>
<path d="M354.848 21.4972C354.529 22.2942 354.292 22.0572 354.244 20.8922C354.201 19.8382 354.437 19.2482 354.769 19.5802C355.101 19.9122 355.137 20.7752 354.848 21.4972Z" fill="#66A164"/>
<path d="M360.698 21.5813C360.698 21.7883 359.928 24.0642 358.966 24.8192C353.591 29.6719 354.966 28.0893 357.966 23.0322C359.273 21.3662 360.698 20.7583 360.698 21.5813Z" fill="#66A164"/>
<path d="M347.867 45.7472C349.266 46.8472 350.012 47.7372 349.525 47.7252C348.359 47.6952 343.39 43.7982 344.482 43.7692C344.946 43.7572 346.469 44.6472 347.867 45.7472Z" fill="#F8A151"/>
<path d="M323.219 58.3152C322.9 59.1122 322.968 58.4122 322.92 57.2472C322.877 56.1932 322.808 56.0662 323.14 56.3982C323.472 56.7302 323.508 57.5932 323.219 58.3152Z" fill="#F8A151"/>
<path d="M346.64 60.7472C347.901 61.2892 348.085 61.6062 347.14 61.6062C346.315 61.6062 344.74 61.2202 343.64 60.7472C342.379 60.2052 342.195 59.8882 343.14 59.8882C343.965 59.8882 345.54 60.2742 346.64 60.7472Z" fill="#F8A151"/>
<path d="M312.14 77.7472C312.965 78.2802 313.19 78.7162 312.64 78.7162C312.09 78.7162 310.965 78.2802 310.14 77.7472C309.315 77.2142 309.09 76.7783 309.64 76.7783C310.19 76.7783 311.315 77.2142 312.14 77.7472Z" fill="#F8A151"/>
<path fill-rule="evenodd" clip-rule="evenodd" d="M213.25 100.498C217.314 98.4353 220.061 97.1735 220.5 97.1735C220.5 97.1735 152.45 54.753 143.683 44.9752C166.14 26.0712 176.14 15.2291 176.14 15.2291C170.084 17.4356 158.08 22.7377 149.039 27.3532C101.172 51.7922 62.4072 91.1192 38.2522 139.747C22.3572 171.744 13.9202 203.649 12.4692 237.247L12.0047 248.016C11.9531 249.21 13.3702 249.871 14.2522 249.064C15.5662 247.863 17.9072 246.4 19.4552 245.814C23.1882 244.399 31.4472 244.459 36.3762 245.936C42.0792 247.645 49.5832 254.88 54.6772 263.581L56.9369 267.441C57.8203 268.95 60.0489 268.798 60.7182 267.182C64.9332 257.006 67.6642 252.343 72.0392 247.851C79.1102 240.592 82.0462 239.375 92.6402 239.318C100.293 239.276 102.47 239.657 107.186 241.859C110.236 243.284 114.493 245.979 116.647 247.848L117.264 248.384C117.689 248.753 118.286 248.199 117.949 247.747C113.878 242.295 112.578 236.692 113.979 230.625C116.069 221.571 122.846 214.73 131.706 212.732C133.383 212.354 135.615 212.454 138.099 212.888L145.5 206.592L156 198.174L164.653 191.847L178 182.674C177.476 182.871 177.03 181.902 174.62 179.388C169.088 173.614 164.297 171.536 156.653 171.595C148.846 171.655 139.149 176.381 134.618 182.334C132.955 184.519 129.766 184.784 127.764 182.904L125.406 180.687C117.097 172.876 110.509 170.397 99.6402 170.989C93.5122 171.323 90.1172 172.124 85.1332 174.413C69.3602 181.656 58.4692 193.582 56.5252 205.74L56.442 206.26C56.1258 208.238 54.2004 209.534 52.2492 209.082C50.2642 208.623 44.8152 208.247 40.1402 208.247C30.6702 208.247 25.4992 210.187 19.3902 216.03L17.946 217.412C17.2669 218.061 16.1402 217.58 16.1402 216.64C16.1402 213.097 20.5432 204.707 25.1472 199.477C29.1252 194.957 35.5462 191.495 42.2692 190.245C44.4046 189.848 45.9985 188.053 46.1403 185.886L46.4332 181.408C46.9912 172.889 50.5622 162.528 56.3392 152.67C61.3752 144.076 71.3562 136.661 80.4842 134.732C82.7702 134.249 87.5652 134.078 91.1402 134.352C97.5472 134.843 100.917 136.247 104.429 139.891C105.539 141.042 107.627 141.748 109.929 141.751C115.207 141.756 119.401 144.723 123.277 151.194L124.308 152.915C125.724 155.279 128.408 156.576 131.14 156.217C134.369 155.792 136.346 154.824 138.14 152.787C141.986 148.421 144.231 147.745 154.824 147.767C166.927 147.792 175.766 149.013 180.803 151.355C184.597 153.12 198.257 166.08 198.147 167.747L222.646 148.174C221.947 147.594 220.14 145.923 220.14 145.216C220.14 143.813 211.454 134.827 206.025 130.613C204.158 129.164 200.967 127.284 198.932 126.434C196.875 125.575 195.881 123.23 196.692 121.154L197.701 118.568C201.625 108.518 204.866 104.751 213.25 100.498ZM92.3212 105.029C93.0462 104.155 94.9892 102.852 96.6402 102.133C96.8262 102.052 97.0016 101.975 97.1678 101.902C98.5745 101.286 99.3113 100.963 100.07 100.898C100.905 100.826 101.767 101.067 103.576 101.573C103.653 101.594 103.732 101.617 103.813 101.639C103.936 101.673 104.063 101.709 104.194 101.745C106.148 102.288 108.732 103.65 109.935 104.77C111.972 106.668 112.325 106.703 115.081 105.277C116.709 104.436 120.278 103.747 123.013 103.747C127.243 103.747 128.45 104.211 131.092 106.853C132.801 108.561 134.907 111.33 135.774 113.006C136.127 113.689 135.292 114.366 134.697 113.879L132.708 112.249C129.084 109.28 126.97 108.341 123.058 107.965C118.794 107.555 117.677 107.833 115.55 109.832C113.486 111.77 112.753 111.97 111.345 110.974C105.313 106.708 101.679 105.515 96.3772 106.062C91.5492 106.56 91.1372 106.455 92.3212 105.029ZM140.475 123.416C139.622 122.562 143.067 118.746 145.64 117.692C148.997 116.318 151.013 116.642 155.076 119.206C161.542 123.288 162.015 125.846 155.826 123.26C151.494 121.45 147.16 121.325 143.683 122.909C142.28 123.549 140.836 123.777 140.475 123.416ZM173.14 133.824C173.14 131.476 177.707 125.87 180.558 124.716C183.172 123.659 185.064 123.582 189.015 124.372C192.423 125.054 193.297 126.747 190.242 126.747C188.046 126.747 177.793 131.951 175.531 134.214C173.532 136.212 173.14 136.148 173.14 133.824Z" fill="#F8A151"/>
<path d="M341.502 11.1735C331.236 8.00452 313.252 3.95724 302.14 2.20824C292.072 0.623241 249.663 -0.656762 241.14 0.367238C227.648 1.98924 210.694 5.52152 201.5 7.67352L240.14 67.2052C240.996 66.2122 246.695 62.7212 251.64 61.1002C257.84 59.0682 272.385 59.8802 279.445 62.6532C286.959 65.6032 296.665 72.5043 296.092 75.5023L341.502 11.1735Z" fill="#F8A151"/>
<path fill-rule="evenodd" clip-rule="evenodd" d="M234.619 139.515C225.68 146.301 221.047 149.58 222.646 148.174L198.147 167.747C198.091 168.588 179.896 181.426 178 182.674L164.653 191.847L156 198.174L145.5 206.592L138.099 212.888C143.5 216.474 150.1 221.283 154 223.661C156.849 225.795 155.5 224.744 160.128 228.674C165.636 232.639 162.971 230.894 165.423 232.5C166.075 232.927 166.69 233.411 167.269 233.933C170.895 237.2 175.058 240.41 177.306 242.174C181.765 245.674 180.66 244.325 183.917 247.174C188.465 250.251 187.429 250.534 188.262 250.534C189.837 250.534 196.51 240.709 216.001 214.442C247.984 171.339 267.099 140.494 267.099 137.28C267.099 135.647 261.966 137.041 260.776 138.997C246.99 161.659 245.563 163.712 243.949 163.2C242.64 162.784 242.387 163.13 242.811 164.754C243.149 166.048 242.602 167.681 241.372 169.045C240.281 170.256 238.551 172.709 237.528 174.497C235.584 177.893 231.522 179.013 230.529 176.426C230.209 175.592 228.929 175.265 227.061 175.539C225.432 175.778 224.099 175.554 224.099 175.041C224.099 174.527 220.499 173.523 216.099 172.808C207.886 171.474 206.689 170.644 209.999 168.577C211.044 167.925 211.671 166.796 211.392 166.069C211.113 165.342 211.397 164.747 212.023 164.747C212.65 164.747 213.421 165.422 213.737 166.247C214.054 167.072 214.701 167.747 215.175 167.747C215.648 167.747 215.775 167.066 215.456 166.234C215.136 165.402 215.337 164.165 215.902 163.484C216.467 162.804 216.967 161.91 217.014 161.497C217.061 161.084 217.324 160.747 217.599 160.747H219.099C219.649 160.747 220.099 161.35 220.099 162.086C220.099 162.823 221.245 163.948 222.646 164.586C226.163 166.189 226.99 166.045 226.436 163.927C226.174 162.926 226.636 161.546 227.463 160.86C228.694 159.838 229.353 160.001 231.115 161.763C232.298 162.946 233.566 163.612 233.932 163.244C234.587 162.587 232.902 160.949 228.045 157.521C226.808 156.648 226.731 154.841 227.889 153.866L228.599 153.269C233.391 149.235 234.729 149.229 240.925 153.215L241.789 153.772C242.257 154.072 242.748 153.426 242.334 153.056C235.55 146.999 237.301 144.84 245.849 148.72C248.186 149.781 250.099 150.478 250.099 150.27C250.099 150.061 247.81 148.407 245.012 146.594L242.994 145.286C241.478 144.304 241.36 142.129 242.762 140.989C244.322 139.719 248.637 136.661 252.349 134.192C258.735 129.947 260.384 127.66 258.086 126.239C256.142 125.038 246.513 130.485 234.619 139.515ZM222.481 157.747C221.656 157.747 221.259 157.297 221.599 156.747C221.939 156.197 222.892 155.747 223.717 155.747C224.542 155.747 224.939 156.197 224.599 156.747C224.259 157.297 223.306 157.747 222.481 157.747ZM224.557 162.782C222.656 164.36 220.528 162.678 221.435 160.314C222.176 158.383 226.099 158.224 226.099 160.125C226.099 160.882 225.405 162.078 224.557 162.782ZM204.496 176.585C201.825 176.071 201.68 173.549 204.141 170.421C205.306 168.94 206.653 167.972 207.135 168.269C208.123 168.88 207.294 171.747 206.131 171.747C205.716 171.747 205.6 172.917 205.873 174.346C206.281 176.477 206.032 176.881 204.496 176.585ZM194.694 175.769C195.296 175.757 196.604 174.847 197.599 173.747C199.84 171.271 201.099 171.193 201.099 173.531C201.099 174.513 199.718 176.132 198.03 177.129C194.586 179.163 194.69 180.572 198.147 178.722C199.423 178.039 201.949 177.787 204.092 178.13C207.69 178.705 207.8 178.635 207.312 176.079C207.059 174.76 208.151 173.571 209.487 173.71L213.202 174.096C218.263 174.621 231.446 178.076 232.886 179.253C233.871 180.059 230.452 184.747 228.879 184.747C227.758 184.747 227.258 185.195 227.658 185.842C228.03 186.445 227.737 188.054 227.007 189.419C226.028 191.247 225.067 191.783 223.353 191.455C221.235 191.05 221.163 191.16 222.543 192.685C223.897 194.182 223.895 194.593 222.522 196.553C221.677 197.76 220.31 198.747 219.483 198.747C218.657 198.747 218.251 199.184 218.582 199.719C219.471 201.158 216.014 205.929 214.502 205.348C213.707 205.043 213.405 205.381 213.726 206.217C214.4 207.973 211.298 212.747 209.484 212.747C208.722 212.747 208.099 213.508 208.099 214.437C208.099 215.367 204.162 221.303 199.349 227.628C194.537 233.954 190.87 236.903 189.916 238.448C188.961 239.993 186.868 242.948 186.291 242.948C185.755 242.948 184.888 241.622 183.19 239.857C182.927 239.584 182.618 239.36 182.281 239.186L181.005 238.526C179.862 237.936 179.433 236.518 180.057 235.394C180.148 235.229 180.259 235.075 180.392 234.941C181.622 233.705 183.069 232.906 183.688 233.143C184.44 233.431 184.688 232.893 184.368 231.667C183.708 229.145 185.971 226.48 188.262 227.079C189.717 227.46 189.883 227.213 189.125 225.795C188.403 224.447 189.879 224.478 192 222.447C193.519 220.992 196.182 220.188 196.84 220.188C198.11 220.188 197.85 216.667 196.84 215.658C196.174 214.991 192.525 214.968 189.291 218.415C188.13 219.653 186.194 221.258 185.359 221.258C185.251 221.258 185.148 221.259 185.05 221.264C182.66 221.39 184.716 225.658 182.789 227.079C181.829 227.788 181.2 228.049 180.569 228.207C179.522 228.469 178.712 228.588 179.157 229.571C179.327 229.946 179.521 230.665 179.495 231.076C179.46 231.638 179.304 231.707 178.608 232.628C177.645 233.9 177.748 234.296 176.51 233.894C175.576 233.59 174.695 233.125 173.918 232.524C171.663 230.784 170.705 229.028 173.031 227.783C174.094 227.214 175.25 225.847 175.6 224.744C175.95 223.641 177.443 222.084 178.918 221.283C180.783 220.27 182.284 218.443 181.099 218.415C177.925 218.34 174.111 219.102 174.579 220.892C174.871 222.01 174.15 223.662 172.435 224.443C168.896 226.055 168.264 227.257 165.217 224.67C165.042 224.521 164.848 224.396 164.638 224.303C163.009 223.585 162.826 221.346 164.316 220.373L164.371 220.337C164.522 220.238 164.663 220.121 164.785 219.988C167.268 217.308 167.206 216.559 164.598 216.559C162.824 216.559 161.059 216.994 162.099 218.247C163.162 219.527 163.137 219.448 160.392 219.448C158.017 219.448 157.039 218.925 156.653 217.448C156.365 216.348 156.73 215.875 156 215.875C155.27 215.875 153.005 215.207 151.562 213.965C149.269 211.993 148.589 212.49 149.5 210.092C150.765 206.766 152.543 206.329 157 209.256C158.88 210.491 160.299 210.757 161.35 211.38C162.402 212.003 164.913 214.026 166.931 215.875C169.572 218.297 169.34 217.896 166.099 214.442C163.624 211.804 159.462 208.272 156.849 206.592C154.623 205.162 154.009 205.366 153.5 204.674C153.411 204.553 153.369 203.407 153.369 203.339C153.369 201.528 156.528 201.731 158.305 203.339C159.336 204.272 159.462 205.006 160 204.674C160.538 204.341 162.077 204.343 164.653 206.309C167.229 208.275 169.536 209.684 169.781 209.44C170.025 209.195 167.956 207.365 165.182 205.373C162.409 203.38 161 202.208 161 201.674C161 201.14 159.77 200.378 159 200.674C157.075 201.412 156.763 200.388 157.902 199.124C158.549 198.406 159.29 197.732 160.156 197.302C160.542 197.109 160.971 197.007 161.35 197.174C161.782 197.364 161.962 197.764 162.027 198.157C162.138 198.828 161.504 199.543 161.79 200.16C161.957 200.52 163.061 199.445 164.599 197.747C166.556 195.585 170.563 195.071 171.658 196.843C172.031 197.446 171.66 198.615 170.834 199.441C169.63 200.644 168.863 200.713 166.966 199.788C166.602 199.611 166.281 200.095 166.587 200.361L167.069 200.779C168.539 202.055 169.688 202.479 169.907 201.824C170.108 201.219 171.146 200.257 172.213 199.686C173.73 198.874 174.837 199.137 177.306 200.894C179.041 202.13 180.115 202.582 179.693 201.9C179.272 201.218 179.419 200.066 180.022 199.34C180.891 198.293 180.599 198.12 178.608 198.501C176.504 198.903 176.097 198.598 176.084 196.614C176.072 194.741 175.872 194.558 175.125 195.739C173.891 197.691 171.561 195.591 172.435 193.314C173.215 191.281 176.147 191.325 180.575 193.437C183.441 194.804 184.356 194.883 185.359 193.853C186.349 192.836 186.297 192.621 185.099 192.782C182.053 193.192 181.099 192.698 181.099 190.712C181.099 188.987 180.794 188.84 179.099 189.747C177.511 190.597 177.099 190.507 177.099 189.313C177.099 187.322 183.943 187.45 186.291 189.485C187.222 190.292 188.572 190.752 189.291 190.507C190.01 190.263 188.598 189.038 186.153 187.785C181.952 185.632 181.814 185.429 183.634 184.098C184.831 183.223 186.634 182.925 188.397 183.312C191.085 183.903 191.165 183.824 189.916 181.797C188.745 179.895 188.875 179.445 191.099 177.725C192.474 176.662 194.092 175.781 194.694 175.769Z" fill="#66A164"/>
<path fill-rule="evenodd" clip-rule="evenodd" d="M371.5 189.762C365.323 185.054 360.012 180.129 360.678 180.686L343.5 166.948C342.5 166.111 339.153 164.421 317.64 148.654C292.659 130.347 287.198 127.219 282.529 127.219C278.129 127.219 277.743 129.05 281.64 131.448C282.328 131.951 281.933 133.041 281.082 132.986L280.5 132.948C277.743 132.607 277.024 134.139 284 134.948C294 136.448 298.681 140.913 298.5 142.448C298.438 142.967 297.329 143.509 295.387 144.448C293.445 145.387 291.369 146.678 290.163 148.63C288.956 150.582 288.914 150.466 288.5 150.21C288.122 149.978 285.667 148.098 283.21 144.415C282.721 143.682 282.2 142.96 281.605 142.311C278.529 138.957 276.228 136.817 274.51 135.476C271.572 133.184 270.581 135.738 272.556 138.898C276.987 145.988 285.971 160.064 297.755 176.982C305.518 188.128 319.844 209.172 329.59 223.747C339.336 238.322 347.659 250.376 348.086 250.534C348.217 250.583 349 249.948 352.5 247.448C354.89 245.448 355.938 244.68 358.5 242.371C361.062 240.063 365.733 235.801 368.46 233.159C371.186 230.518 378.042 223.774 383.705 218.371L392.714 207.899C392.756 207.851 392.79 207.796 392.816 207.738C392.926 207.485 392.861 207.19 392.656 207.006L388 202.844C385 200.448 377.676 194.47 371.5 189.762ZM291.5 154.948C290.511 152.994 290.441 153.182 293.5 150.21C297.525 146.301 301.181 144.594 304.551 147.058C306.175 148.246 305.949 148.488 302.145 149.627C299.835 150.319 298.124 151.065 298.343 151.284C298.563 151.503 300.367 151.183 302.353 150.574C306.895 149.18 309.55 150.073 308.847 152.759C308.24 155.079 309.05 155.745 310.747 153.699C312.144 152.016 316.848 153.255 319 155.872C319.768 156.806 318.924 156.756 317.966 156.616C317.063 156.483 316.159 156.303 315.248 156.257C314.16 156.201 313.726 156.541 313.105 157.289C312.439 158.091 308.364 159.236 307.639 159.236C307.191 159.236 306.22 160.535 305.541 161.648C304.968 162.587 304.481 164.163 305.5 163.75C306.278 163.434 311.038 160.698 312 160.311C313.274 159.799 313.75 160.092 313.75 161.386C313.75 162.364 310.902 164.821 309.94 165.907C308.236 167.829 306.616 171.702 309.133 170.043C311.864 168.609 313.853 168.084 314.897 172.897C314.911 172.958 314.926 173.017 314.944 173.074C315.813 175.836 319.931 172.825 322.607 171.717C323.704 171.263 324.984 170.895 326.5 170.798C326.63 170.787 326.757 170.775 326.88 170.762C330.573 170.379 333.695 167.543 336.816 169.554C338.135 170.404 339.69 171.508 341.435 172.805C347.404 177.241 348.138 177.091 347.737 180.017C347.636 180.758 348.254 183.065 349.192 184.101C350.584 185.639 350.665 186.263 349.636 187.503C348.182 189.254 351.176 188.311 352.872 186.615C353.715 185.772 354.034 185.561 352.507 183.497C349.868 179.927 350.391 179.347 353.745 181.545C355.091 182.427 355.64 182.985 355.64 183.747C355.64 184.509 355.604 185.236 356.446 185.236C357.289 185.236 358.221 185.87 358.519 186.646C358.816 187.421 357.626 188.077 360 188.448C361.243 188.76 363.691 190.89 366.205 193.102C368.718 195.315 367.522 198.44 371.5 197.141C373 196.641 374.639 198.509 375.664 199.747C376.688 200.985 378.545 201.936 379.623 202.546C382.474 204.159 382.04 205.791 379 205.448C376.597 205.177 377.215 204.75 378.955 206.465C380.265 207.757 381.158 208.625 382.056 208.228C382.763 207.915 383.156 207.131 383.832 206.758C385.192 206.008 386.031 206.922 385.386 208.846C385.176 209.474 384.913 210.109 384.45 210.583C383.862 211.184 382.932 211.732 382.067 211.888C380.148 212.234 380.057 209.099 378.407 208.06C377.841 207.704 377.253 207.516 376.887 207.656C375.087 208.347 374.43 208.105 376.5 210.392C378.689 212.811 378.259 216.298 374.5 216.747C373.487 216.868 372.51 216.233 372.145 216.444C370.754 217.247 372.504 219.674 371.451 220.888C369.63 222.987 365.939 225 364.5 224.448C363.331 224 362.155 224.247 363.264 226.323C363.973 227.458 363.247 230.22 361.537 232.283C361.405 232.443 361.247 232.578 361.074 232.693C360.149 233.308 358.925 233.213 358.105 232.464L356.446 230.948C351.988 225.649 343.28 214.349 342.197 212.501C340.988 210.438 338.94 209.385 337.129 208.873C335.207 208.329 333.213 208.963 332.228 210.7C332.045 211.021 331.836 211.385 331.582 211.8C331.568 211.823 331.555 211.848 331.545 211.873C331.371 212.304 331.847 212.708 332.244 212.466L332.831 212.109L332.881 212.081C334.702 211.036 337.003 211.387 338.43 212.927L338.543 213.048C338.651 213.165 338.769 213.271 338.896 213.367C340.062 214.243 340.306 215.894 339.444 217.071L339.075 217.574C338.443 218.437 337.571 219.35 336.669 219.923C336.219 220.21 335.767 220.448 335.5 220.448C334.692 220.448 332.785 218.751 331.441 217.14C330.097 215.529 330.681 213.079 329.338 211.468C329.053 211.126 328.716 210.793 328.351 210.465C327.039 209.284 325.83 207.424 325.664 206.332C325.499 205.24 325.145 204.643 323.633 203.349C320.018 200.256 320.164 198.876 324.344 196.625C326.247 195.6 324.877 195.151 324.653 194.927C324.47 194.743 323.238 195.251 321.722 196.106C321.052 196.484 320.255 196.584 319.525 196.342C319.179 196.227 318.861 196.041 318.591 195.795L317.64 194.927C315.008 191.768 316.736 190.073 320.5 186.747C322.433 185.039 321.738 184.356 320.5 184.948C319.927 185.221 318.855 185.881 317.837 186.58C316.219 187.691 314.561 190.104 313.105 188.786C310.373 186.314 310.796 184.981 315.248 182.035C317.448 180.579 317.14 180.242 317.14 179.66C317.14 179.078 316.55 178.758 314.5 180.448C309.941 184.206 309.05 184.849 307.5 181.448C306.396 179.025 307.34 178.086 310.5 175.448C312.388 173.872 311.696 173.247 311.247 173.247C310.838 173.247 308.97 174.596 307.403 175.878C307.106 176.12 306.746 176.274 306.365 176.312L305.924 176.356C305.372 176.411 304.847 176.107 304.62 175.601C304.574 175.5 304.516 175.404 304.446 175.318C303.338 173.937 302.46 172.631 302.96 171.736C303.523 170.729 303.634 169.812 302.145 169.078C299.622 167.833 293.167 158.24 291.5 154.948ZM325.118 161.582C322.344 162.002 321.139 160.693 322 158.448C322.441 157.299 322.78 157.585 323.714 158.338C324.487 158.962 325.268 159.586 325.962 160.297C326.75 161.103 326.759 161.333 325.118 161.582ZM316.605 161.35C315.834 160.306 315.926 159.705 316.216 159.236C317.088 157.825 318.857 158.272 319.5 159.948C319.831 160.81 319.866 161.414 319.205 162.064C318.28 162.977 317.685 162.813 316.605 161.35ZM323.64 163.75C326.484 163.75 329.913 162.352 331.823 164.458C332.23 164.907 332.498 165.413 332.498 165.907C332.498 168.431 320.115 169.136 318.649 166.764C317.236 164.479 318.444 163.75 323.64 163.75ZM336.585 222.199C336.585 221.06 337.884 220.419 338.885 219.873C340.098 219.212 341.122 218.753 341.435 218.751C343.026 218.743 348.552 225.575 348.552 227.502C348.552 229.377 344.256 233.692 343 232.916C341.505 231.992 336.585 223.605 336.585 222.199ZM347.453 240.871C344.455 236.968 345.42 235.044 349.495 231.648C349.635 231.532 349.794 231.437 349.963 231.368C350.597 231.111 351.323 231.239 351.831 231.698L353.449 233.159C356.827 236.394 356.078 237.698 353.099 240.157C352.32 240.8 351.684 241.394 351.002 242.034C350.287 242.704 349.171 242.662 348.5 241.948L347.453 240.871Z" fill="#66A164"/>
<path fill-rule="evenodd" clip-rule="evenodd" d="M395.466 36.4692C389.197 32.7061 379.547 27.457 372.9 24.08C372.9 24.08 395.595 38.1893 392.5 41.2762C389.404 44.3632 329.14 92.8962 329.14 92.8962C335.191 93.8988 339.631 96.1552 342.232 101.456C344.32 105.712 344.59 107.7 344.645 119.247C344.679 126.397 345.078 133.035 345.531 133.997C346.534 136.131 347.473 136.156 354.801 134.247C357.969 133.422 362.43 132.747 364.715 132.747C373.309 132.747 382.037 143.691 379.251 150.973C378.693 152.433 376.996 153.09 375.6 152.389L373.279 151.223C366.898 148.018 361.507 148.008 356.812 151.195C351.803 154.594 347.401 159.645 346.091 163.497C345.988 163.799 345.892 164.108 345.798 164.41C345.334 165.898 345.564 168.676 343.5 166.948L360.678 180.686C361.365 179.804 364.479 179.11 368.743 178.161C369.436 178.007 370.159 177.846 370.907 177.676C378.995 175.843 381.032 174.986 382.962 172.608C384.757 170.398 386.121 169.748 388.962 169.751C393.357 169.755 398.371 172.597 400.783 176.449C401.746 177.988 402.629 179.393 402.744 179.571C402.86 179.749 404.377 179.159 406.116 178.26C407.855 177.36 410.934 176.52 412.959 176.393C416.442 176.174 416.701 175.915 417.78 171.588C420.374 161.175 425.919 154.059 434.904 149.609C438.96 147.599 441.147 147.262 450.14 147.255C459.132 147.248 461.246 147.571 464.862 149.503C471.754 153.186 476.073 157.664 479.724 164.913L480.788 167.025C482.245 169.92 485.211 171.747 488.452 171.747C492.462 171.747 494.716 171.114 497.78 169.127C500.145 167.594 501.138 164.63 500.173 161.982L499.77 160.877C498.641 157.78 494.101 148.047 489.679 139.247L483.15 126.253C482.232 124.425 480.323 123.31 478.28 123.406C476.275 123.502 473.081 124.887 470.358 126.842L469.275 127.62C467.345 129.007 464.66 128.589 463.242 126.682C452.614 112.389 443.538 108.755 432.368 114.321C426.822 117.085 420.771 123.561 417.254 130.497C416.069 132.834 414.826 134.747 414.491 134.747C414.156 134.747 412.139 133.172 410.008 131.247C404.989 126.712 399.359 126.292 391.235 129.845C388.813 130.904 386.566 131.506 386.241 131.182C385.109 130.049 393.919 122.902 397.763 121.835C399.896 121.243 404.431 120.756 407.842 120.753L408.619 120.753C412.016 120.749 415.194 119.076 417.119 116.277C428.342 99.9652 449.38 98.8582 463.236 113.851L464.907 115.659C466.707 117.606 469.466 118.343 471.996 117.553C474.275 116.842 476.132 115.807 476.122 115.254C476.113 114.7 473.38 110.46 470.05 105.832C450.082 78.0773 423.309 53.1792 395.466 36.4692ZM385.776 72.5173C376.871 61.4493 376.081 60.0482 376.068 58.9252C376.06 58.2382 376.441 57.6752 376.914 57.6752C378.114 57.6752 383.734 61.2482 389.404 65.9812C395.021 70.6692 395.97 70.5962 404.968 64.7792C410.912 60.9382 414.14 59.8002 414.14 61.5472C414.14 61.9872 413.578 62.9432 412.89 63.6722C411.888 64.7342 411.907 65.0942 412.988 65.4882C413.901 65.8202 412.831 67.5073 409.679 70.7073L408.26 72.148C406.503 73.9328 406.608 76.8284 408.49 78.4812C410.397 80.1562 414.474 83.0312 417.549 84.8702C420.624 86.7092 423.14 88.6122 423.14 89.0982C423.14 90.1232 409.47 89.0803 403.841 87.6253C399.071 86.3933 397.569 86.8722 387.326 92.8962C375.313 99.9622 365.14 104.933 365.14 103.737C365.14 103.168 366.858 100.8 368.958 98.4752C371.058 96.1492 373.853 92.6722 375.17 90.7472C376.486 88.8222 380.003 84.6683 382.985 81.5173L385.523 78.8345C387.175 77.0882 387.283 74.39 385.776 72.5173Z" fill="#F8A151"/>
<path fill-rule="evenodd" clip-rule="evenodd" d="M344.482 13.8952C342.453 12.9295 341.502 11.1735 341.502 11.1735L296.092 75.5023C295.519 78.5003 271.068 108.707 269.54 108.73C268.935 108.74 265.832 104.81 262.643 99.9972C259.455 95.1852 253.06 85.9603 248.434 79.4983C245.022 74.7315 242.327 70.5639 241.003 68.5167L241.001 68.5142L240.916 68.3815C240.495 67.7312 240.229 67.3204 240.14 67.2052L201.5 7.67352C195.717 9.02708 194 9.44812 194.287 9.57618C194.411 9.67839 194.831 10.0071 195.183 10.5792C197.585 14.4882 198.368 17.4972 203.635 24.4732C212.084 35.6642 213.068 38.3792 208.673 38.3792C207.188 38.3792 204.14 42.1002 204.14 43.1722C204.14 43.3622 204.76 44.7132 205.517 46.1732C206.656 48.3682 207.005 48.5412 207.53 47.1742C207.953 46.0712 208.87 45.7052 210.283 46.0742C211.497 46.3922 212.389 46.4857 213.245 45.6287C216.516 42.3587 218.269 43.7605 227.284 58.6115C230.172 64.3996 232.255 68.4145 234.004 70.7858C234.962 72.0836 236.825 74.5387 238.146 75.4642C239.021 75.9186 239.487 76.493 239.713 77.0925C240.503 79.194 238.316 82.5785 240.546 82.3234C241.457 82.2193 242.563 82.1264 243.278 82.8912C249.244 89.2712 249.489 90.0252 247.008 94.3782C244.477 98.8192 241.171 102.747 239.966 102.747C239.512 102.747 239.966 100.501 239.966 99.4183C239.966 98.3194 240.932 96.78 239.774 97.2444C238.78 97.6429 237.844 98.3529 236.793 98.1475C236.089 98.0099 235.325 97.6506 234.649 96.9981C231.202 93.668 229.816 92.0415 228.616 91.023C227.631 90.1872 226.162 89.7909 225.8 88.5511C225.625 87.9506 225.535 87.2136 225.447 86.4481C225.172 84.0671 224.197 84.5391 222.5 85.4481C222.148 85.6363 221.845 85.734 221.585 85.765C220.227 85.9268 221.868 81.8952 220.5 81.8952C219.969 81.8952 217.207 81.9444 216.562 84.6411C216.514 84.8448 216.503 85.3296 216.494 85.5389C216.466 86.2449 215.67 85.7158 215.425 85.0532C215.168 84.361 215 83.3782 215 82.3891C215 79.9191 216.4 80.9481 218.5 80.9481C219.875 80.9481 221 80.5401 221 80.0421C221 79.5431 220.393 77.9302 219.369 78.1982C217.076 78.7982 217.21 74.2533 219.14 72.6123C219.836 72.0213 223.063 67.9671 223.708 66.4461C224.85 63.7541 225.162 62.8101 222.5 63.4481C219.157 64.2501 213.143 67.7792 215.376 67.7792C217.431 67.7792 216.483 70.0992 214.516 71.7322C212.64 73.2882 210.66 72.6632 211.27 70.3282C211.803 68.2902 210.021 66.6742 207.14 67.7792C205.693 68.3342 208.081 66.7292 208.673 64.0352C209.263 61.3502 206.547 62.5042 204.901 62.5042C203.839 62.5042 200.105 64.1575 198.378 65.8075C196.721 67.392 194.415 68.7136 193.134 68.832C193.032 68.8415 192.931 68.855 192.832 68.8837L192.44 68.998C191.525 69.2647 191.465 70.5379 192.351 70.8891C192.45 70.9282 192.545 70.9853 192.626 71.0537C196.393 74.2301 194.433 74.3459 189.237 70.6514C186.53 68.7264 184.988 67.1104 185.811 67.0614C186.634 67.0114 185.846 65.4791 184 64.9481C181.18 64.1361 180.717 63.6011 181.101 61.5931C181.504 59.4861 179.795 59.865 177.502 60.278C175.719 60.599 173.331 59.748 169.909 57.571C165.577 54.815 164.92 54.3492 166.648 53.7342C168.209 53.1792 167.733 52.8702 164.448 52.3082C162.142 51.9132 159.681 50.8992 158.98 50.0542C157.915 48.7712 158.096 48.2012 160.074 46.6002C162.547 44.5972 164.248 44.5702 164.899 46.5232C165.109 47.1552 164.128 47.9632 162.718 48.3172C161.308 48.6712 160.427 49.4022 160.76 49.9412C161.146 50.5662 161.76 50.5272 162.453 49.8342C164.019 48.2682 167.11 49.9872 169.052 51.7452C170.793 53.3202 177.508 52.7972 176.5 51.1652C176.218 50.7102 177.548 48.6594 178.64 48.0744C179.551 47.587 180.13 47.4312 180.619 47.6817C181.654 48.2113 183.062 49.8451 182.236 50.6624C182.15 50.7472 181.877 50.7472 181.282 50.7472C180.222 50.7472 179.075 51.4732 178.735 52.3602C178.342 53.3842 177.389 53.7842 176.128 53.4542C174.985 53.1552 174.14 53.4292 174.14 54.0982C174.14 54.8632 175.68 55.1392 178.64 54.9042C181.355 54.6882 182.284 57.2572 182.284 57.8932C182.284 58.4732 187.723 55.6632 189.64 54.4512C194.232 51.5472 192.449 47.4283 187.804 47.7813C185.991 47.9193 183.719 48.3091 183.004 47.4481C181.977 46.2101 183.123 46.2481 184.889 46.2481C187.222 46.2481 187.688 44.3251 185.811 42.4481C184.478 41.1151 178.14 40.2972 178.14 41.5362C178.14 41.9712 179.334 42.3082 180.792 42.2862C182.251 42.2652 182.767 42.8584 183.004 43.5454C183.277 44.3384 182.469 44.7954 180.792 44.7954C179.16 44.7954 178.588 45.0465 178.999 45.7115C179.43 46.4085 178.657 46.6725 176.808 46.4615C175.15 46.2715 175.812 45.1682 175.961 44.4302C176.103 43.7302 175.203 42.7662 173.961 42.2862C170.4 40.9102 165.553 36.9342 166.866 35.6212C168.277 34.2102 170.444 35.5122 169.74 37.3482C169.414 38.1962 169.849 38.7472 170.843 38.7472C171.745 38.7472 173.382 39.5342 174.481 40.4972C176.147 41.9562 176.599 42.7562 176.124 41.4452C175.258 39.0552 180.144 38.3371 182.305 40.0281C183.773 41.1761 183.608 40.3681 182.5 38.9481C181.471 37.6291 181.118 36.8442 182.315 35.8512C183.123 35.1802 185.289 36.3512 186 36.7612C186.712 37.1722 186.225 36.0782 185.811 35.6212C185.397 35.1652 185.09 32.7522 186 31.7472C187.257 30.3582 187.883 31.8382 188.908 32.6882C189.649 33.3032 190.256 34.4272 190.256 35.1842C190.256 35.9422 192.95 36.7612 193.5 36.7612C194.05 36.7612 194.5 36.3923 194.5 35.9403C194.5 34.5613 183.259 23.7452 181.907 23.7832C181.21 23.8032 181.878 24.8322 183.39 26.0712C184.902 27.3092 185.5 28.7811 185.5 29.4481C185.5 31.0361 182.298 31.0101 180.477 29.4101C179.694 28.7231 178.819 29.3797 179.82 30.5827C181.75 32.8997 181.304 34.8957 178.856 34.8957C178.046 34.8957 177.818 35.4222 177.502 36.2472C176.911 37.7872 173.57 38.3402 172.973 36.9972C172.79 36.5852 171.178 35.2212 169.39 33.9672C166.8 32.1502 166.14 31.9982 166.14 33.2172C166.14 34.0802 166.936 34.3957 165.807 34.3957C162.985 34.3957 164.617 31.7332 167.565 29.8012C168.863 28.9512 169.108 28.8848 170.148 29.2248C171.463 29.6538 173.033 30.1402 172.14 29.4972C170.313 28.1822 171.714 25.3242 174.534 24.6162C176.06 24.2332 175.14 22.4502 175.14 21.1702C175.14 19.4712 175.85 21.1291 178.604 21.5561C180.529 21.8541 181.213 21.8724 182.252 21.0843C182.77 20.6919 183.305 20.3173 183.902 20.0613C185.914 19.1979 188.242 19.5476 189.912 20.9642L193.76 24.2282C200.801 30.2012 199.421 27.6432 198.463 25.1462C198.125 24.2662 198.477 23.1412 199.244 22.6472C200.147 22.0672 199.534 21.9622 197.511 22.3492C193.898 23.0412 191.639 20.9522 195.039 20.0632C196.195 19.7612 197.14 19.1262 197.14 18.6522C197.14 18.1782 196.007 18.3062 194.622 18.9372C192.464 19.9212 192.871 20.9738 191.14 19.1158C190.028 17.9228 189.78 17.4571 189.251 17.4571C187.709 17.4571 188.318 15.5941 190 14.9481C190.846 14.6241 191.342 14.4191 192.5 15.4481C194.586 17.3021 195.058 17.9122 193.7 15.7012C191.76 12.5431 189.792 11.8604 186.835 14.4393C185.652 15.4715 184.469 16.5274 183.082 17.2621C180.638 18.5562 179.903 18.7181 179.323 18.3602C177.009 16.9299 181.111 14.9479 183.731 14.2146C188.568 12.8607 195.816 10.5241 194.287 9.57618C194 9.44812 184.5 11.9481 176.14 15.2291C176.14 15.2291 166.14 26.0712 143.683 44.9752C152.45 54.753 220.5 97.1735 220.5 97.1735C220.94 97.1725 224.5 99.6735 228.22 102.747C230.797 105.083 232.967 106.721 234.276 107.71C234.404 107.807 234.524 107.897 234.635 107.981C235.222 108.426 235.82 108.863 236.452 109.239C237.976 110.145 238.293 110.333 239.924 111.219C245 114.674 257.169 121.95 258.606 121.399C259.308 121.129 260.2 119.644 260.588 118.099C261.428 114.752 259.703 113.069 250.847 108.599C247.658 106.989 246.466 106.723 246.16 105.926C245.531 104.286 250.359 95.4512 251.884 95.4512C252.913 95.4512 260.273 107.245 262.351 111.889C263.376 114.18 264.263 114.592 269.02 114.987C273.832 115.386 274.884 115.887 277.573 119.057C279.39 121.199 282.404 121.882 284.967 120.734L288.928 118.959C293.487 116.918 299.562 113.343 302.428 111.016C320.249 98.358 323.315 96.4974 326.036 94.8468C326.935 94.3012 327.796 93.7785 329.14 92.8962C329.14 92.8962 389.404 44.3632 392.5 41.2762C395.595 38.1893 372.9 24.08 372.9 24.08C368.98 22.0879 356.33 15.7508 341.502 11.1735C341.202 11.1735 343.03 15.2289 362.159 21.5991C364.434 22.3569 369.152 24.9435 368.206 27.1478C368.1 27.3947 367.882 27.519 367.655 27.6618C367.504 27.7562 367.375 27.8389 367.264 27.9112C366.313 28.5284 365.35 27.5267 364.489 26.789C362.748 25.2981 362.053 25.7308 363.5 27.4481C364.989 29.2141 366.046 29.4921 364.894 30.4481C363.341 31.7376 361.701 28.6602 361.433 26.1481C361.333 25.2106 361.769 23.6941 361.009 24.2522C360.621 24.5372 360.041 25.0431 359.252 25.7472C357.725 27.1092 356.12 30.1761 355.5 30.9481C354.464 32.239 352.914 31.6426 352.625 33.2726C352.59 33.4709 352.569 33.66 352.569 33.8202C352.569 34.8802 353.185 35.7472 353.938 35.7472C354.691 35.7472 355.1 36.3102 354.848 36.9972C354.362 38.3232 353.792 38.3432 350.711 37.1452C348.805 36.4052 348.805 36.4282 350.711 39.0402C351.772 40.4942 352.972 41.6982 353.379 41.7162C355.011 41.7852 362.14 48.3202 362.14 49.7472C362.14 52.3252 358.212 50.2062 352.939 44.7842C349.75 41.5042 347.14 39.2352 347.14 39.7422C347.14 40.2482 348.929 42.5432 351.115 44.8412C354.996 48.9212 355.568 51.5092 352.312 50.2602C350.571 49.5912 353.64 53.3222 358.14 57.3432C361.476 60.3242 360.246 61.2362 355.54 59.2702L354.93 59.0151C354.192 58.7065 353.555 59.6242 354.103 60.2072C356.92 63.2072 356.177 64.5412 352.597 62.9092C349.471 61.4852 347.991 61.4302 350.39 62.8272C352.707 64.1772 352.603 64.9552 349.688 68.1012C346.884 71.1262 344.055 71.8572 346.219 68.9972C347.346 67.5082 347.334 67.4342 346.142 68.4972C345.371 69.1852 343.903 69.7472 342.881 69.7472C341.859 69.7472 341.286 70.1742 341.609 70.6972C341.932 71.2192 341.223 72.1683 340.033 72.8043C338.344 73.7083 338.167 74.1462 339.226 74.8002C339.972 75.2612 340.37 75.7992 340.111 75.9952C339.852 76.1922 338.402 77.1262 336.89 78.0732C334.513 79.5592 334.14 79.5862 334.14 78.2702C334.14 77.4322 333.652 76.7472 333.057 76.7472C332.461 76.7472 332.175 77.3102 332.422 77.9972C333.303 80.4552 331.314 82.4972 328.425 82.1012C326.245 81.8022 326.057 81.9013 327.561 82.5563C329.391 83.3543 329.369 83.4732 327.089 85.0702C323.637 87.4882 319.14 87.3052 319.14 84.7472C319.14 83.3532 319.807 82.7472 321.34 82.7472C323.902 82.7472 322.765 81.3122 319.396 80.2942C317.618 79.7572 317.278 79.9433 317.758 81.1943C318.091 82.0623 317.88 83.3553 317.29 84.0673C316.474 85.0493 316.974 85.8093 319.367 87.2223C320.924 88.1425 321.134 90.313 319.781 91.5135L318.115 92.9912C314.919 95.8272 313.065 96.7752 311.35 96.4472C309.665 96.1252 309.296 96.3033 310.064 97.0713C311.647 98.6543 311.376 99.7432 309.39 99.7792C308.428 99.7962 306.791 100.454 305.753 101.239C304.132 102.466 303.999 102.441 302.283 101.239C299.623 99.3773 294.566 91.6673 294.56 89.4683C294.555 87.2993 296.455 87.2162 298.185 89.3022C298.895 90.1572 300.413 91.3372 301.558 91.9242C302.816 92.5692 302.146 91.4332 299.866 89.0532L298.926 88.0719C297.429 86.5091 297.658 83.9834 299.413 82.7163C299.713 82.4995 299.979 82.2381 300.194 81.9364C301.471 80.1428 302.696 78.0934 303.006 77.2061C303.344 76.2431 305.12 75.2822 305.904 75.2822C306.689 75.2822 307.259 74.7202 307.169 74.0322C306.83 71.4182 306.294 70.8783 308.259 70.3643C309.374 70.0723 310.511 69.8882 310.43 69.4282C309.972 66.8222 309.628 65.0683 312.14 65.3623C314.078 65.5883 314.157 67.3242 314.575 69.1102C314.992 70.8912 316.007 71.7622 318.115 72.1452C320.595 72.5962 320.127 73.0032 319.969 75.2822C319.798 77.7452 320.099 77.9972 323.219 77.9972C325.11 77.9972 329.045 76.4682 329.045 75.9952C329.045 75.5212 327.015 75.2393 325.64 75.5023C323.807 75.8533 323.14 75.5493 323.14 74.3643C323.14 73.1139 324.879 72.5618 325.798 71.7138C326.195 71.3469 326.5 70.9701 326.5 70.7472C326.5 70.3264 325.088 69.9583 323.024 69.9853C321.719 70.0024 320.342 70.1535 319.194 69.5333C317.837 68.7998 317.49 67.6032 317.016 66.3552C316.535 65.0902 315.178 63.5402 314 62.9092C312.076 61.8802 315.101 60.5186 316.196 58.6315C316.829 57.5407 316.687 56.4635 317.227 55.3953C319.21 51.4703 320.709 51.4032 321.855 53.2132C322.441 54.1382 322.733 53.3272 322.744 50.7472C322.756 47.7522 323.581 46.0652 325.14 45.6582C326.414 45.3252 327.14 44.2942 327.14 42.8192C327.14 41.3812 328.168 40.0522 329.41 39.6582C330.51 39.3092 331.421 38.2662 331.435 37.3412C331.449 36.4152 334.155 30.9972 338.5 24.8192L341.614 20.1485C342.11 19.4045 342.676 18.7095 343.308 18.0766C344.17 17.2128 345.333 16.0583 345.5 15.9481C346.673 15.1742 345.71 14.4796 344.482 13.8952ZM367.523 32.7472C368.284 32.7472 369.142 31.8472 369.43 30.7472C369.733 29.5862 370.337 29.4481 371.5 29.4481C373.689 29.4481 379.439 34.3492 378.869 36.0602C378.209 38.0392 376.326 37.8632 374.246 35.6302C372.306 33.5482 372.057 33.5122 370.343 35.0632C368.931 36.3412 368.241 36.4482 367.326 35.5332C365.741 33.9482 365.826 32.7472 367.523 32.7472ZM357.527 33.8412C355.308 35.6822 354.593 34.0092 356.634 31.7532C358.914 29.2342 359.637 29.2442 362.221 31.8282C364.204 33.8112 364.22 34.0012 362.566 35.8282C361.557 36.9442 361.314 37.7472 361.985 37.7472C362.62 37.7472 363.14 37.2972 363.14 36.7472C363.14 34.9652 365.679 35.6842 368.947 38.3922C372.232 41.1132 373.002 42.7472 371 42.7472C370.373 42.7472 369.289 43.5292 368.591 44.4842C367.389 46.1262 367.209 46.1202 365.268 44.3632C364.184 43.3824 364.219 41.6696 365.341 40.733L365.428 40.6602C366.645 39.6442 367.115 38.7992 366.473 38.7802C365.832 38.7622 365.121 39.3042 364.894 39.9852C364.567 40.9672 363.922 40.9692 361.783 39.9942C358.803 38.6362 357.097 35.5952 358.966 34.9722C359.619 34.7542 359.885 34.1432 359.557 33.6132C359.192 33.0222 358.407 33.1102 357.527 33.8412ZM151.707 44.5642C150.367 44.5492 149.639 44.9071 153.75 40.9281C156.864 37.9141 160.127 35.4481 161 35.4481C163.298 35.4481 162.506 37.8382 160.14 38.4572C159.706 38.5708 159.321 38.6811 158.996 38.7905C157.123 39.4197 159.323 41.4757 158.591 43.3105C157.884 45.0822 156.377 47.0049 153.652 47.0427C153.599 47.0434 153.545 47.0531 153.495 47.0724C153.074 47.237 152.72 46.7176 153.028 46.3856L154.703 44.5772L157.64 41.4062C157.02 42.0762 156.335 42.6907 155.541 43.1408C154.066 43.9762 152.505 44.5729 151.707 44.5642ZM372.9 39.5672C371.668 39.3912 370.51 38.4602 370.327 37.4972C369.945 35.4912 372.149 35.1562 373.94 36.9472C375.802 38.8092 375.362 39.9182 372.9 39.5672ZM376.398 43.8192C375.106 43.2302 374.844 41.5075 375.903 40.5612L376.538 39.9942C380.107 36.8042 383.764 36.1382 383.764 38.6772C383.764 39.5532 383.75 39.4552 384.85 39.7422C387.146 40.3432 387.35 41.1322 385.65 42.8322C383.876 44.6062 381.793 45.0932 382.502 43.2472C382.852 42.3332 382.503 41.7472 381.609 41.7472C379.81 41.7472 379.721 42.9232 381.39 44.6092C382.391 45.6212 381.463 45.7962 379.947 46.6512C378.906 47.2382 373.956 51.1723 368.947 55.3953C356.935 65.5193 355.375 66.4762 365.11 57.4352C370.873 52.0832 372.627 49.8882 371.798 49.0672C370.971 48.2492 370.754 48.7102 370.028 49.9972C369.485 50.9602 368.648 51.7472 368.167 51.7472C366.915 51.7472 361.14 46.7432 361.14 45.6582C361.14 43.7632 365.229 44.8132 366.003 46.9072C366.341 47.8204 367.565 47.9785 368.124 47.1813L368.266 46.9782C370.262 44.1282 374.419 43.1732 376.087 45.1832C377.489 46.8722 379.14 47.2642 379.14 45.9082C379.14 45.4462 377.906 44.5062 376.398 43.8192ZM163.713 41.7472C161.269 41.7472 160.27 39.9502 161.841 38.3792C163.045 37.1752 165.601 38.1882 165.952 40.0082C166.2 41.2962 165.619 41.7472 163.713 41.7472ZM360.469 43.7472C358.397 43.7472 355.14 40.9022 355.14 39.0922C355.14 37.2882 357.06 37.3742 357.764 39.2092C358.072 40.0132 359.183 40.9432 360.232 41.2762C362.584 42.0232 362.749 43.7472 360.469 43.7472ZM206.14 43.3542C206.14 42.5882 207.828 41.2612 209.89 40.4052C214.622 38.4432 213.321 38.5991 214.839 40.4281C216.44 42.3571 215.721 43.0661 211.853 43.3701C210.162 43.5031 209.808 43.7462 209.453 44.1012C208.29 45.2632 206.14 44.7792 206.14 43.3542ZM168.39 45.6282C165.219 44.7132 164.457 43.7642 165.807 42.4142C166.173 42.0472 166.757 42.0472 167.323 42.0472C168.838 42.0472 173.961 47.2072 173.961 48.7342C173.961 50.5252 170.674 50.0962 169.14 48.2472C168.11 47.0062 168.219 46.7312 169.768 46.6572C170.799 46.6072 170.181 46.1452 168.39 45.6282ZM183.698 54.2281C180.664 54.2281 182.107 52.5912 185.811 50.7472C186.773 50.2685 187.54 49.9639 188.156 49.7924C190.38 49.1742 190.693 52.3021 188.566 53.1967C187.074 53.8237 185.185 54.2281 183.698 54.2281ZM362.436 57.7472C359.827 57.7472 353.623 52.3932 354.53 50.9242C355.553 49.2702 356.809 49.4592 358.349 51.4972C359.076 52.4602 360.537 53.7292 361.596 54.3182C364.232 55.7862 364.712 57.7472 362.436 57.7472ZM366.141 54.2472C364.541 55.2352 362.14 54.0542 362.14 52.2782C362.14 50.3582 364.512 50.2852 366.066 52.1582C366.906 53.1702 366.927 53.7612 366.141 54.2472ZM202.05 72.6123C197.586 72.6123 194.547 71.7852 197.62 68.5142C198.885 67.1672 200.742 66.0652 201.746 66.0652C203.975 66.0652 203.589 66.1552 201.589 68.1562C200.187 69.5572 200.411 69.7672 203.919 70.3282C206.712 70.7742 208.564 71.9052 210.522 74.3592C212.806 77.2212 213.496 76.8032 212.183 77.3062C211.323 77.6372 209.949 77.3512 209.131 76.6722C207.919 75.6662 207.546 73.5823 207.546 76.2732C207.546 78.4342 205.605 78.2882 202.546 75.8952C202.004 75.5407 202.329 74.6972 202.969 74.7987L203.847 74.9378C203.89 74.9447 203.934 74.9481 203.978 74.9468C205.237 74.9098 206.477 74.1577 206.14 73.6123C205.8 73.0623 203.959 72.6123 202.05 72.6123ZM347.164 75.6191C345.362 76.8121 345.961 75.9821 348.664 73.5411C351.139 71.3061 353.346 69.4641 353.569 69.4481C354.506 69.3791 349.928 73.7901 347.164 75.6191ZM340.83 74.7472C340.28 74.7472 340.645 73.8472 341.64 72.7472C342.635 71.6472 343.9 70.7472 344.45 70.7472C345 70.7472 344.635 71.6472 343.64 72.7472C342.645 73.8472 341.38 74.7472 340.83 74.7472ZM221.303 93.4362C223.157 94.5705 220.988 93.9671 219.186 92.7519C213.122 88.6626 199.5 78.5519 199.5 77.9481C199.5 77.6901 202.065 79.6532 205.64 81.8952C207.065 82.7881 208.205 83.4541 209.133 84.0457C211.377 85.4756 213.046 87.8245 215.199 89.3879C216.199 90.1136 217.379 90.9257 218.64 91.7472C219.774 92.4856 220.644 93.033 221.303 93.4362ZM325.664 93.0501C325.664 92.7561 328.897 89.7931 332.85 86.4661C340.559 79.9771 343.788 78.1711 337.164 84.0531C331.332 89.2331 325.664 93.6671 325.664 93.0501ZM211 82.2601C210.503 82.5671 209.811 82.0552 209.131 81.2362C208.126 80.0252 207.917 79.8401 209.189 79.8401C211.055 79.8401 212.276 81.4711 211 82.2601ZM288.824 98.6938C290.59 97.8141 289.089 96.3604 289.888 94.5563C290.135 93.9996 290.402 93.5077 290.537 93.1542C291.129 91.6122 291.292 92.2041 293.244 93.9371C296.535 96.8571 301.102 103.473 300.5 104.448C299.315 106.365 295.981 104.631 294.343 101.753C293.407 100.107 291.689 99.1661 291.231 99.1621C290.774 99.1591 291.353 100.592 292.5 102.448C294.658 105.939 295.284 106.128 289.515 109.065C287.954 109.859 286.225 110.246 284.521 110.651C283.459 110.904 282.496 111.286 281.64 111.889C279.401 113.468 277.573 113.663 277.573 112.448C277.573 110.1 285.38 100.379 287.873 99.1621C288.234 98.9858 288.55 98.8305 288.824 98.6938Z" fill="#66A164"/>
<path d="M277.174 129.448C275.147 133.44 270.119 135.573 264.677 132.849C263.645 132.332 262.738 131.572 262.123 130.596C260.714 128.357 260.058 125.27 261.871 121.998C262.985 119.988 265.141 118.78 267.416 118.46C276.337 117.203 279.534 123.391 277.174 129.448Z" fill="#66A164"/>
<path d="M303.14 211.375C312.098 214.49 322.449 219.159 321.812 219.796C321.562 220.047 318.746 221.203 315.5 219.836C306.063 215.864 296.63 214.113 283.5 213.135C276.784 212.634 278.5 211.836 267 211.649C261.749 211.134 246.932 212.422 243.012 211.825C241.15 211.541 244.251 209.8 246.094 209.418C250.084 208.591 258.514 208.338 273.64 208.513C294.419 208.752 296.056 208.911 303.14 211.375Z" fill="#66A164"/>
<path d="M332.445 202.099C332.81 203.051 332.127 203.421 330.14 203.349C328.003 203.272 327.568 202.943 328.351 201.997C329.711 200.352 331.794 200.404 332.445 202.099Z" fill="#66A164"/>
<path d="M341.89 189.619C343.128 190.278 344.14 191.267 344.14 191.817C344.14 192.446 343.49 192.483 342.39 191.917C341.428 191.422 339.965 191.216 339.14 191.458C337.986 191.798 337.939 191.689 338.937 190.985C339.98 190.25 339.931 189.818 338.687 188.786C337.836 188.08 337.154 186.995 337.172 186.375C337.189 185.754 337.752 185.961 338.422 186.834C339.092 187.706 340.652 188.96 341.89 189.619Z" fill="#66A164"/>
<path d="M338.911 196.56C339.155 197.291 338.697 197.514 337.724 197.141C336.853 196.806 336.14 196.094 336.14 195.557C336.14 194.242 338.413 195.065 338.911 196.56Z" fill="#66A164"/>
<path d="M347.21 191.616C346.66 192.643 346.439 193.713 346.718 193.992C346.998 194.271 346.532 194.766 345.683 195.092C343.718 195.846 343.722 194.788 345.697 191.97C347.589 189.268 348.593 189.033 347.21 191.616Z" fill="#66A164"/>
<path d="M358.742 204.66C358.836 207.342 358.664 207.487 356.548 206.523C355.484 206.039 355.292 204.609 356.189 203.86L356.446 203.645C357.653 202.638 358.64 201.8 358.64 201.783C358.64 201.779 358.643 201.853 358.648 201.991L358.656 202.219C358.674 202.727 358.706 203.631 358.742 204.66Z" fill="#66A164"/>
<path d="M352.14 201.188C352.14 201.431 351.69 201.907 351.14 202.247C350.59 202.587 350.14 202.388 350.14 201.806C350.14 201.224 350.59 200.747 351.14 200.747C351.69 200.747 352.14 200.945 352.14 201.188Z" fill="#66A164"/>
<path d="M351.64 198.747C351.98 199.297 351.781 199.747 351.199 199.747C350.617 199.747 350.14 199.297 350.14 198.747C350.14 198.197 350.338 197.747 350.581 197.747C350.824 197.747 351.3 198.197 351.64 198.747Z" fill="#66A164"/>
<path d="M346.589 205.475C347.305 207.341 346.771 207.054 344.064 204.116C341.752 201.606 341.743 201.547 343.871 202.844C345.098 203.592 346.321 204.776 346.589 205.475Z" fill="#66A164"/>
<path d="M355.14 190.747C353.201 192 352.14 192 352.14 190.747C352.14 190.197 353.152 189.754 354.39 189.762C356.209 189.775 356.353 189.963 355.14 190.747Z" fill="#66A164"/>
<path d="M367.705 204.852C368.19 205.636 367.796 205.633 366.316 204.841C365.181 204.234 363.947 203.244 363.575 202.642C363.09 201.858 363.484 201.861 364.964 202.653C366.099 203.26 367.333 204.25 367.705 204.852Z" fill="#66A164"/>
<path d="M349.869 208.351C349.537 208.683 348.674 208.719 347.953 208.43C347.155 208.111 347.392 207.874 348.557 207.826C349.611 207.783 350.201 208.019 349.869 208.351Z" fill="#66A164"/>
<path d="M362.64 208.197C362.64 209.613 362.268 210.275 361.757 209.764C361.272 209.279 361.145 208.176 361.476 207.314C362.32 205.115 362.64 205.358 362.64 208.197Z" fill="#66A164"/>
<path d="M368.14 213.729C369.424 214.544 369.316 215.006 367.39 216.936C366.152 218.177 365.14 218.668 365.14 218.028C365.14 217.388 365.612 216.573 366.189 216.217C366.905 215.774 366.867 215.123 366.066 214.158C364.733 212.552 365.903 212.31 368.14 213.729Z" fill="#66A164"/>
<path d="M364.829 192.409C364.829 192.959 364.181 193.409 363.388 193.409C362.595 193.409 361.669 192.959 361.329 192.409C360.989 191.859 361.638 191.409 362.77 191.409C363.902 191.409 364.829 191.859 364.829 192.409Z" fill="#66A164"/>
<path d="M347.324 185.247C348.935 187.185 348.873 187.248 345.312 187.287L344.531 187.296C343.453 187.307 342.893 186.015 343.638 185.236C344.739 184.087 345.645 183.169 345.651 183.196C345.657 183.224 346.409 184.147 347.324 185.247Z" fill="#66A164"/>
<path d="M335.772 174.829C337.624 175.973 339.14 177.323 339.14 177.829C339.14 179.156 342.53 178.957 343.94 177.547C344.873 176.614 345.14 176.621 345.14 177.578C345.14 178.256 344.352 179.089 343.39 179.43C342.428 179.772 340.833 180.745 339.847 181.593C338.224 182.988 338.113 182.982 338.673 181.522C339.483 179.41 333.871 174.002 330.302 173.455C327.838 173.077 327.817 173.036 330.022 172.897C331.332 172.814 333.92 173.684 335.772 174.829Z" fill="#66A164"/>
<path d="M335.719 191.826C336.777 191.869 337.078 192.132 336.389 192.409C334.742 193.074 329.133 190.567 329.811 189.47C330.101 189.001 331.117 189.321 332.068 190.182C333.019 191.043 334.662 191.783 335.719 191.826Z" fill="#66A164"/>
<path d="M328.14 185.247C328.858 186.112 328.955 186.747 328.369 186.747C327.811 186.747 327.095 186.072 326.778 185.247C326.462 184.422 326.359 183.747 326.549 183.747C326.739 183.747 327.455 184.422 328.14 185.247Z" fill="#66A164"/>
<path d="M323.64 183.747C323.3 184.297 322.572 184.747 322.022 184.747C321.472 184.747 321.3 184.297 321.64 183.747C321.98 183.197 322.708 182.747 323.258 182.747C323.808 182.747 323.98 183.197 323.64 183.747Z" fill="#66A164"/>
<path d="M334.14 178.364C334.14 178.574 333.015 178.747 331.64 178.747C330.265 178.747 329.14 178.359 329.14 177.886C329.14 177.412 330.265 177.239 331.64 177.502C333.015 177.765 334.14 178.153 334.14 178.364Z" fill="#66A164"/>
<path d="M341.435 174.64C341.435 175.19 341.237 175.64 340.994 175.64C340.751 175.64 340.275 175.19 339.935 174.64C339.595 174.09 339.794 173.64 340.376 173.64C340.958 173.64 341.435 174.09 341.435 174.64Z" fill="#66A164"/>
<path d="M353.449 213.821C353.747 214.962 354.818 216.112 355.829 216.376C357.395 216.785 360.546 220.793 362.017 224.247C362.549 225.494 352.936 214.973 351.84 213.108C351.4 212.36 351.46 211.747 351.974 211.747C352.487 211.747 353.151 212.68 353.449 213.821Z" fill="#66A164"/>
<path d="M370.081 218.747C370.081 219.297 369.883 219.747 369.64 219.747C369.397 219.747 368.921 219.297 368.581 218.747C368.241 218.197 368.44 217.747 369.022 217.747C369.604 217.747 370.081 218.197 370.081 218.747Z" fill="#66A164"/>
<path d="M357.14 194.747C357.14 195.297 356.942 195.747 356.699 195.747C356.456 195.747 355.98 195.297 355.64 194.747C355.3 194.197 355.499 193.747 356.081 193.747C356.663 193.747 357.14 194.197 357.14 194.747Z" fill="#66A164"/>
<path d="M319.402 176.5C321.121 177.139 322.814 178.176 323.926 179.634C324.998 181.041 320.705 179.481 320 179.211C318.268 178.546 317.062 176.253 318.5 176.253C318.658 176.253 318.997 176.35 319.402 176.5Z" fill="#66A164"/>
<path d="M259.318 133.805C258.041 134.317 254.534 136.37 251.526 138.366C248.518 140.363 245.824 141.765 245.541 141.481C244.445 140.386 257.381 132.696 260.125 132.81C260.977 132.846 260.623 133.281 259.318 133.805Z" fill="#66A164"/>
<path d="M291.527 139.515C298.5 143.118 296.212 143.104 295.387 143.103C294.562 143.103 287.025 140.443 284 138.803C277.677 135.376 284.747 136.012 291.527 139.515Z" fill="#66A164"/>
<path d="M201.861 193.911C200.419 196.423 200.327 197.267 201.36 198.512C202.449 199.824 202.304 199.934 200.31 199.301C198.698 198.789 197.341 199.125 195.836 200.407C194.07 201.91 193.916 201.935 194.993 200.541C195.719 199.602 196.022 198.365 195.667 197.791C195.312 197.217 195.639 196.747 196.392 196.747C198.84 196.747 202.352 192.666 201.782 190.484C201.373 188.921 201.523 188.73 202.439 189.646C203.356 190.563 203.224 191.536 201.861 193.911Z" fill="#66A164"/>
<path d="M196.265 205.173C196.48 205.723 194.033 207.948 192.5 207.948C191.815 207.948 191.23 207.913 190.763 207.773C189.116 207.281 189.967 204.799 189.3 203.214C189.079 202.686 188.783 202.231 188.5 201.948C187.666 201.114 190.599 201.562 192.5 202.448C193.975 203.136 196.05 204.623 196.265 205.173Z" fill="#66A164"/>
<path d="M184.75 212.199C184.43 214.376 181.05 217.753 179.235 217.707C178.263 217.683 178.726 217.078 180.42 216.159C181.948 215.33 182.903 214.173 182.542 213.588C182.18 213.002 182.504 212.131 183.262 211.651L183.409 211.558C184.246 211.027 184.641 210.776 184.794 210.881C184.931 210.974 184.875 211.349 184.771 212.059L184.75 212.199Z" fill="#66A164"/>
<path d="M181 208.948C181 209.302 177.828 210.448 176.5 210.448C174.746 210.448 174.782 208.313 175.5 207.448C176.46 206.292 181 207.655 181 208.948Z" fill="#66A164"/>
<path d="M171.747 214.247C170.461 214.917 168.067 214.435 167.832 214.247C167.07 213.635 172.124 209.907 173 210.448C173.468 210.737 173.034 213.577 171.747 214.247Z" fill="#66A164"/>
<path d="M152.583 210.165C151.516 210.945 150.43 211.371 150.171 211.111C149.62 210.561 152.199 208.785 153.581 208.762C154.099 208.754 153.649 209.385 152.583 210.165Z" fill="#66A164"/>
<path d="M213.14 195.247C213.14 195.404 212.465 195.792 211.64 196.109C210.735 196.456 210.14 196.114 210.14 195.247C210.14 194.38 210.735 194.038 211.64 194.385C212.465 194.702 213.14 195.09 213.14 195.247Z" fill="#66A164"/>
<path d="M215.715 187.868C216.56 189.236 214.731 188.903 212.581 187.297C210.708 185.898 210.72 185.867 212.906 186.417C214.152 186.731 215.416 187.384 215.715 187.868Z" fill="#66A164"/>
<path d="M206.715 183.852C208.135 184.408 207.656 184.625 204.89 184.677C200.739 184.755 200.597 184.589 202.378 181.737C203.484 179.967 203.679 179.934 204.203 181.426C204.525 182.346 205.656 183.437 206.715 183.852Z" fill="#66A164"/>
<path d="M190 210.092C190 210.335 188.05 212.002 187.5 212.342C186.95 212.682 186 211.03 186 210.448C186 209.866 186.95 207.948 187.5 207.948C188.05 207.948 190 209.849 190 210.092Z" fill="#66A164"/>
<path d="M211.502 178.247C210.874 179.881 209.14 180.31 209.14 178.83C209.14 178.071 209.841 177.555 211.859 176.826C211.979 176.783 211.818 177.422 211.502 178.247Z" fill="#66A164"/>
<path d="M217.681 179.68C217.319 180.267 216.581 180.747 216.042 180.747C215.502 180.747 215.641 180.117 216.351 179.348C217.786 177.79 218.707 178.02 217.681 179.68Z" fill="#66A164"/>
<path d="M198.121 57.4891C197.778 58.0431 197.521 60.4182 198.378 60.7472C199.235 61.0762 199.847 62.5952 199.55 63.0762C199.253 63.5572 198.68 63.7212 197.62 63.0592C196.178 62.1582 193.523 61.8962 192.672 62.7472C191.205 64.2142 193.587 65.6821 195.5 64.9481C198.139 63.9361 196.54 66.2162 193.518 67.7792C189.771 69.7172 186.557 69.1542 188.175 67.2052C189.13 66.0542 189.167 65.3743 188.321 64.5283C187.475 63.6823 189.893 61.1571 192.672 59.4481C196.929 56.8301 198.978 56.1011 198.121 57.4891Z" fill="#66A164"/>
<path d="M227.284 71.7322C226.608 72.6212 222.939 79.8712 222.783 80.1002C222.627 80.3292 222 77.3113 222 75.5023C222 72.6803 225.204 66.0573 226.501 67.1343C227.72 68.1463 228.275 70.4282 227.284 71.7322Z" fill="#66A164"/>
<path d="M228.945 81.4661C227.492 83.2171 224.603 83.1481 225.447 80.9481C225.786 80.0641 230.42 71.3732 231 71.7322C231.725 72.1802 229.763 80.4811 228.945 81.4661Z" fill="#66A164"/>
<path d="M213.245 65.1839C211.959 66.2319 210.487 66.1722 210.301 65.6542C210.114 65.1362 211.014 63.8542 212.301 62.8052C213.587 61.7572 216.954 59.76 217.14 60.278C217.327 60.796 214.532 64.1349 213.245 65.1839Z" fill="#66A164"/>
<path d="M218.14 48.0744C217.086 48.8454 216.841 50.7511 217.173 51.6171C217.495 52.4541 217.268 53.6291 216.669 54.2281C215.883 55.0141 216.578 56.5751 217.776 57.0351C219.979 57.8801 218.903 59.4671 216.14 59.4481C214.378 59.4351 211.932 58.5322 213.132 57.7732C214.271 57.0532 214.347 56.5542 213.453 55.6602C212.56 54.7672 212.562 54.0412 213.462 52.5882C214.395 51.0822 214.349 50.5052 213.245 49.8182C212.127 49.1222 213.697 47.8254 215.216 47.4364C219.077 46.4474 220.069 46.6644 218.14 48.0744Z" fill="#66A164"/>
<path d="M205.642 31.8203C204.206 33.4083 204.123 33.8942 205.232 34.2472C209.196 35.5102 210.928 37.2752 208.5 37.3482C206.665 37.4031 204.69 37.6317 203.21 37.9983C201.067 38.5292 200.292 42.4481 202.5 42.4481C203.663 42.4481 203.566 43.9406 202.641 44.8656C201.715 45.7916 200.807 45.1908 199.191 43.4568C197.789 41.9518 194.461 40.7161 193 41.0851C190.948 41.6021 191.11 40.3831 193 39.4481C194.1 38.9041 197.55 37.7388 199.1 37.1788C201.233 36.4098 201.842 35.6137 201.6 33.9127C201.395 32.4667 201.994 31.2787 203.281 30.5827C206.024 29.0977 207.796 29.4403 205.642 31.8203Z" fill="#66A164"/>
<path d="M194.5 50.3426C193.917 50.9296 186 41.8362 186 40.4972C186 39.9912 197.447 44.1501 198.5 45.4481C199.553 46.7471 194.773 50.0686 194.5 50.3426Z" fill="#66A164"/>
<path d="M195.397 28.8614C196.402 29.1814 195.644 29.6802 194.859 30.1652C193.722 30.8682 184.836 22.4541 184.828 20.6841C184.825 20.1721 186.916 20.9782 188.428 22.6472C189.94 24.3172 194.599 28.6074 195.397 28.8614Z" fill="#66A164"/>
<path d="M179.641 24.6129C179.825 25.378 179.699 26.1847 179.587 26.9635C179.36 28.5372 178.676 30.9391 176.808 30.6881C176.276 30.6881 174.945 28.1488 175.261 27.3238C175.578 26.4988 175.909 22.4222 178.14 22.4222C178.308 22.4222 179.336 23.3416 179.641 24.6129Z" fill="#66A164"/>
<path d="M176.321 31.4896C178.096 32.8603 177.215 36.6416 174.972 36.6497C173.359 36.6555 171.835 34.8637 171.271 34.3957C167.254 31.06 166.18 30.1522 171.37 30.7269C173.775 30.9932 175.845 31.2722 176.14 31.3852C176.202 31.409 176.262 31.4444 176.321 31.4896Z" fill="#66A164"/>
<path d="M200.577 30.1903C201.151 31.1487 201.086 32.2662 200.529 33.2347C200.096 33.9884 199.54 34.8475 199.053 35.5366C198.478 36.3497 197.577 36.6604 197.04 35.8212C196.923 35.6376 196.811 35.4395 196.709 35.2393C196.267 34.3668 196.359 33.3644 196.775 32.4787C197.165 31.6466 197.712 30.6743 198.238 29.9458C198.86 29.0857 199.887 29.0955 200.455 29.9921C200.496 30.0574 200.537 30.1236 200.577 30.1903Z" fill="#66A164"/>
<path d="M209.644 51.6652C208.577 52.4452 200.197 56.2516 199.837 55.8925C199.286 55.3425 204.758 50.3656 206.14 50.3426C206.658 50.3346 210.71 50.8852 209.644 51.6652Z" fill="#66A164"/>
<path d="M194.674 54.9834C194.336 55.5304 186.707 62.1142 185.5 62.7472C182.166 64.6072 183.002 61.9661 184.894 59.8361C186.803 57.6861 195.83 53.1134 194.674 54.9834Z" fill="#66A164"/>
<path d="M178.999 57.8932C181.056 59.9252 173.93 58.9342 171.14 56.7122C169.15 55.1262 168.148 53.8882 169.74 54.4512C171.5 54.9042 178.14 57.0447 178.999 57.8932Z" fill="#66A164"/>
<path d="M329.55 62.3742C329.894 63.2682 329.666 64.6133 329.045 65.3623C327.543 67.1723 330.249 68.2942 332.812 66.9242C334.422 66.0632 334.673 66.4133 334.914 69.8473C335.159 73.3253 334.942 73.7442 332.914 73.7152C330.811 73.6862 330.771 73.5842 332.39 72.3552C334.936 70.4232 334.533 68.7472 331.523 68.7472C329.433 68.7472 329.008 69.1342 329.41 70.6722C329.728 71.8892 329.48 72.4312 328.734 72.1452C328.019 71.8702 327.571 69.5383 327.597 66.2203C327.64 60.7523 328.374 59.3072 329.55 62.3742Z" fill="#66A164"/>
<path d="M335.601 54.6832C336.954 56.8732 334.468 56.3112 332.767 54.0432C330.911 51.5672 330.912 51.5552 332.962 52.6512C334.098 53.2602 335.286 54.1742 335.601 54.6832Z" fill="#66A164"/>
<path d="M341.778 28.2472C342.095 29.0722 342.868 29.7502 343.497 29.7532C344.126 29.7572 345.385 31.0692 346.295 32.6692C347.924 35.5332 347.91 35.5882 345.383 36.2222C343.523 36.6892 342.248 36.2992 340.755 34.8072C339.622 33.6742 339.197 32.7472 339.811 32.7472C340.424 32.7472 341.185 33.4222 341.502 34.2472C342.186 36.0302 345.14 36.2722 345.14 34.5452C345.14 33.8832 343.702 31.8582 341.944 30.0452C340.186 28.2312 339.3 26.7472 339.975 26.7472C340.65 26.7472 341.462 27.4222 341.778 28.2472Z" fill="#66A164"/>
<path d="M350.755 25.1852C349.261 27.1442 347.695 28.7472 347.276 28.7472C346.857 28.7472 345.221 27.3972 343.64 25.7472C342.059 24.0972 341.041 21.7822 341.694 21.7822C342.347 21.7822 342.881 22.2162 342.881 22.7472C342.881 23.2772 343.336 24.5712 344.482 25.1852C346.144 26.0742 345.747 25.464 347.276 24.08C349.645 21.936 349.706 19.9359 347.483 17.2339C346.542 16.0899 349.013 17.4572 350.595 18.9352C352.228 20.462 352.439 22.9774 351.083 24.7549L350.755 25.1852Z" fill="#66A164"/>
<path d="M352.362 29.9661C348.195 34.2648 346.777 34.3918 349.674 30.9437C350.525 29.9313 351.285 28.8383 351.945 27.6926C353.765 24.5363 355.758 22.2062 356 22.4481C356.285 22.7331 355.5 25.9481 352.362 29.9661Z" fill="#66A164"/>
<path d="M339.711 43.6222C339.711 45.1702 339.401 45.3022 337.929 44.3832C336.242 43.3292 336.24 43.2342 337.894 42.5792C338.854 42.1992 339.656 41.8562 339.676 41.8172C339.695 41.7792 339.711 42.5912 339.711 43.6222Z" fill="#66A164"/>
<path d="M345.64 49.7472C345.98 50.2972 345.808 50.7472 345.258 50.7472C344.708 50.7472 343.98 50.2972 343.64 49.7472C343.3 49.1972 343.472 48.7472 344.022 48.7472C344.572 48.7472 345.3 49.1972 345.64 49.7472Z" fill="#66A164"/>
<path d="M342.633 53.7362C342.983 54.3022 342.582 54.4702 341.692 54.1292C339.96 53.4642 339.643 52.7472 341.081 52.7472C341.599 52.7472 342.297 53.1922 342.633 53.7362Z" fill="#66A164"/>
<path d="M339.263 38.1442C342.013 41.5362 340.737 41.0692 336.537 37.1472C333.809 34.5992 333.378 33.8872 335.099 34.7742C336.451 35.4712 338.325 36.9872 339.263 38.1442Z" fill="#66A164"/>
<path d="M347 22.2052C347 22.2703 346.988 22.3483 346.966 22.4337C346.549 24.066 344.651 22.3771 344.118 20.7789C343.829 19.9134 343.64 19.1225 343.64 19.0299C343.64 18.8399 345.394 19.2642 346.219 19.5802C347.044 19.8972 347 21.6472 347 22.2052Z" fill="#66A164"/>
<path d="M260.116 109.969C260.431 110.772 262.296 113.421 261.201 113.399C260.343 113.382 259.67 112.669 258.971 112.173C256.163 110.178 252.455 108.311 253.144 107.48C253.715 106.793 255.577 103.448 256 103.448C256.424 103.448 259.852 109.282 260.116 109.969Z" fill="#66A164"/>
<path d="M316.14 90.7472C317.433 91.5822 317.406 91.7182 315.949 91.7322C315.019 91.7402 313.98 91.2972 313.64 90.7472C312.858 89.4812 314.182 89.4812 316.14 90.7472Z" fill="#66A164"/>
<path d="M313.64 83.7472C313.98 84.2972 313.781 84.7472 313.199 84.7472C312.617 84.7472 312.14 84.2972 312.14 83.7472C312.14 83.1972 312.338 82.7472 312.581 82.7472C312.824 82.7472 313.3 83.1972 313.64 83.7472Z" fill="#66A164"/>
<path d="M329.14 50.2472C329.14 51.0722 328.963 51.7472 328.747 51.7472C328.531 51.7472 328.095 51.0722 327.778 50.2472C327.462 49.4222 327.639 48.7472 328.171 48.7472C328.704 48.7472 329.14 49.4222 329.14 50.2472Z" fill="#66A164"/>
<path d="M375.14 47.7472C375.14 48.2972 374.663 48.7472 374.081 48.7472C373.499 48.7472 373.3 48.2972 373.64 47.7472C373.98 47.1972 374.456 46.7472 374.699 46.7472C374.942 46.7472 375.14 47.1972 375.14 47.7472Z" fill="#66A164"/>
<path d="M256.345 161.707C256.406 161.468 256.627 161.508 256.84 161.632C264.813 166.258 258.128 185.82 257.5 186.448C257.378 186.571 255.702 188.627 253.612 191.906C249.245 198.757 239.269 205.372 235.71 212.675C232.729 218.792 230.533 227.756 228.879 236.948C224.617 255.696 235.246 273.338 238.27 278.464C238.849 279.445 238.426 279.925 237.287 279.908C221.841 279.675 202.032 282.637 203.854 281.674C205.652 280.723 204.031 235.275 228.94 196.879C231.388 193.105 235.858 191.403 240.027 189.712C253.057 184.428 255.655 164.388 256.345 161.707Z" fill="#66A164"/>
<path d="M237.348 77.2022C239.564 75.902 237.034 81.0791 238.765 82.9765C239.425 83.6989 240.372 84.4665 241.599 85.2632C242.443 85.8114 243.384 86.1881 244.317 86.5656C247.235 87.746 248.273 89.0911 246.16 89.1546C242.698 89.258 243.576 90.4947 240.658 91.3039C239.448 91.6395 237.667 92.1894 238.437 93.1816C238.887 93.7624 239.729 94.2545 240.16 94.2545C241.323 94.2545 242.755 92.2462 243.5 93.4481C244 94.2545 237.676 97.1735 237 96.4481C236.219 95.6103 234.758 94.0007 233.185 92.5658C231.004 90.5768 225.699 89.1258 227.844 87.0985C228.116 86.8422 228.495 86.6165 229 86.4481C230.1 85.9041 231.45 86.2151 233 85.6551C235.133 84.8861 235.742 84.0901 235.5 82.3891C235.428 81.88 235.096 81.5507 234.769 81.2505C233.446 80.0357 235.799 78.1115 237.348 77.2022Z" fill="#66A164"/>
<path d="M300.695 202.377C309.653 205.492 316.156 208.637 315.519 209.274C313.672 208.751 305.765 206.141 302.519 204.774C293.082 200.802 291.923 202.242 278.793 201.264C272.077 200.763 265.82 200.503 264.888 200.684C261.276 201.389 247.413 201.87 248.019 201.264C249.671 199.612 250.93 199.281 271.195 199.515C291.974 199.754 293.611 199.913 300.695 202.377Z" fill="#66A164"/>
<path d="M295.999 218.948C296.58 218.948 302.292 235.104 303.565 237.991C304.838 240.878 307.996 248.745 310.58 255.474C315.094 267.225 315.499 260.448 315.499 257.948C315.499 254.448 315.372 251.044 313.999 242.448C313.371 238.519 311.277 228.119 311.5 227.448C311.726 226.779 315.782 235.525 317.923 240.948C323.421 254.874 329.143 266.109 330.5 266.948C333.746 268.955 332.999 255.449 331.602 251.741C331.602 251.741 328.999 240.948 326.499 233.448C326.5 231.954 330.973 241.391 331 241.448L337.5 254.448C339.5 258.448 348.5 278.946 349 280.448C349 281.071 351.067 281.88 354.89 282.27C358.602 282.648 367.94 283.726 375.64 284.663L389.64 286.367L335.64 286.339C299.518 286.32 277.502 286.725 269.14 287.563C219.427 292.542 174.962 301.573 144.14 312.948C141.115 314.065 135.49 316.058 131.64 317.376C117.983 322.056 93.8779 332.943 87.3256 337.389C85.4206 338.682 83.086 339.741 82.14 339.741C81.1939 339.741 78.6694 340.949 76.5307 342.423C75.9965 342.792 75.3459 343.218 74.6283 343.673H30.0775C30.9193 341.943 35.0641 339.671 50.64 331.773C75.306 319.265 92.5591 311.989 118.64 303.098C140.518 295.639 137.442 295.525 112.717 302.879C79.3683 312.798 60.5683 319.947 38.2104 331.206C32.4664 334.098 31.2306 334.418 30.7406 333.14C30.3067 332.01 30.6303 331.761 31.9779 332.189C33.0689 332.535 35.1782 331.785 37.2211 330.324C42.3961 326.624 57.7742 318.506 67.6352 314.271C99.9811 300.378 152.886 288.463 210.14 282.176C219.612 281.136 238.469 280.391 264.522 280.027L304.405 279.47L303.778 273.355C303.433 269.992 302.251 261.39 301.153 254.241C298.926 239.753 294.418 218.951 295.999 218.948ZM185.799 311.262C245.422 293.209 324.049 286.432 405.315 292.343C416.59 293.163 430.09 294.416 435.315 295.129C444.441 296.372 443.574 296.429 413.315 296.538C394.811 296.604 374.183 297.282 363.315 298.182C342.906 299.872 312.545 303.883 302.972 306.154C299.586 306.957 293.44 308.315 289.315 309.171C263.576 314.513 236.325 322.377 217.815 329.804C213.965 331.349 209.69 332.928 208.315 333.313C206.94 333.698 203.115 335.242 199.815 336.741C196.515 338.24 192.69 339.804 191.315 340.217C190.219 340.546 187.308 341.835 183.397 343.673H106.845C121.222 336.2 140.604 326.779 146.315 324.602C156.184 320.839 173.568 314.965 185.799 311.262ZM429.386 301.046C465.508 300.437 485.109 301.317 499.315 304.188C505.814 305.501 505.813 305.502 489.815 305.635C439.413 306.057 390.629 312.288 352.591 323.162C342.05 326.175 331.488 329.522 329.12 330.6C326.753 331.677 323.015 332.885 320.815 333.283C316.869 333.996 303.87 339.082 294.098 343.673H222.022C227.908 340.943 233.13 338.505 234.815 337.699C238.826 335.78 241.846 334.679 267.815 325.68C291.368 317.518 329.017 309.008 357.815 305.333C380.422 302.45 393.858 301.645 429.386 301.046ZM457.171 311.284C477.535 309.434 509.416 307.507 510 308.092C510.236 308.329 510.039 310.026 509.563 311.865L508.697 315.208L498.256 316.431C473.503 319.334 440.413 327.333 414.315 336.723C405.541 339.88 399.907 341.941 395.534 343.673H327.834C341.307 337.425 354.718 332.231 367.687 328.3C393.601 320.445 427.695 313.963 457.171 311.284ZM439.64 336.323C456.965 330.044 505.55 317.642 507.029 319.121C507.272 319.369 506.417 323.094 505.127 327.402L502.781 335.241L494.298 338.004C488.334 339.948 482.844 341.821 477.746 343.673H421.84C427.506 341.088 434.069 338.342 439.64 336.323ZM68.64 319.832C69.19 319.819 62.665 323.308 54.14 327.588C45.6151 331.867 36.84 336.497 34.64 337.875C28.1797 341.923 28.14 341.939 28.14 340.54C28.14 339.814 32.0781 337.045 36.89 334.388C45.6357 329.559 66.7505 319.879 68.64 319.832ZM28.14 335.741C30.061 334.499 30.407 334.499 29.64 335.741C29.2999 336.29 28.4862 336.733 27.8314 336.725C27.1155 336.715 27.2394 336.323 28.14 335.741ZM30.89 328.804C36.904 325.7 39.8695 324.871 36.9066 327.122C35.9527 327.846 35.4884 328.755 35.8754 329.142C36.2623 329.529 35.7314 329.52 34.6957 329.124C33.4397 328.642 33.0396 328.767 33.4926 329.501C33.8663 330.106 33.7152 330.884 33.1566 331.23C32.5976 331.575 32.14 331.366 32.14 330.764C32.14 329.974 31.5754 329.973 30.1127 330.755C28.9977 331.352 28.3483 332.269 28.6713 332.791C28.994 333.313 28.3313 333.741 27.1996 333.741C23.5716 333.741 24.9822 331.854 30.89 328.804ZM46.64 321.825C47.19 321.825 46.065 322.687 44.14 323.741C42.2151 324.795 40.19 325.657 39.64 325.657C39.0906 325.657 40.2155 324.794 42.14 323.741C44.0648 322.687 46.0897 321.825 46.64 321.825Z" fill="#66A164"/>
<path d="M6.272 401.55V356.75H24.704C28.672 356.75 32.064 357.39 34.88 358.67C37.7387 359.95 39.936 361.785 41.472 364.174C43.008 366.563 43.776 369.401 43.776 372.686C43.776 375.971 43.008 378.809 41.472 381.198C39.936 383.587 37.7387 385.422 34.88 386.702C32.064 387.982 28.672 388.622 24.704 388.622H10.88L14.592 384.718V401.55H6.272ZM14.592 385.614L10.88 381.582H24.32C27.9893 381.582 30.7413 380.814 32.576 379.278C34.4533 377.699 35.392 375.502 35.392 372.686C35.392 369.827 34.4533 367.63 32.576 366.094C30.7413 364.558 27.9893 363.79 24.32 363.79H10.88L14.592 359.694V385.614ZM54.487 394.51C56.8337 395.321 58.903 395.534 60.695 395.15C62.487 394.766 64.087 393.465 65.495 391.246L67.671 387.854L68.503 386.958L84.119 356.75H92.311L72.855 392.91C71.2763 395.939 69.399 398.243 67.223 399.822C65.047 401.401 62.7003 402.275 60.183 402.446C57.7083 402.659 55.127 402.19 52.439 401.038L54.487 394.51ZM68.311 394.126L48.343 356.75H57.239L72.855 387.726L68.311 394.126ZM121.468 402.19C118.054 402.19 114.876 401.635 111.932 400.526C109.03 399.374 106.492 397.774 104.316 395.726C102.182 393.635 100.518 391.182 99.3235 388.366C98.1288 385.55 97.5315 382.478 97.5315 379.15C97.5315 375.822 98.1288 372.75 99.3235 369.934C100.518 367.118 102.204 364.686 104.38 362.638C106.556 360.547 109.094 358.947 111.996 357.838C114.897 356.686 118.076 356.11 121.532 356.11C125.201 356.11 128.55 356.75 131.58 358.03C134.609 359.267 137.169 361.123 139.26 363.598L133.884 368.654C132.262 366.905 130.449 365.603 128.444 364.75C126.438 363.854 124.262 363.406 121.916 363.406C119.569 363.406 117.414 363.79 115.452 364.558C113.532 365.326 111.846 366.414 110.396 367.822C108.988 369.23 107.878 370.894 107.068 372.814C106.3 374.734 105.916 376.846 105.916 379.15C105.916 381.454 106.3 383.566 107.068 385.486C107.878 387.406 108.988 389.07 110.396 390.478C111.846 391.886 113.532 392.974 115.452 393.742C117.414 394.51 119.569 394.894 121.916 394.894C124.262 394.894 126.438 394.467 128.444 393.614C130.449 392.718 132.262 391.374 133.884 389.582L139.26 394.702C137.169 397.134 134.609 398.99 131.58 400.27C128.55 401.55 125.18 402.19 121.468 402.19ZM143.551 401.55L163.711 356.75H171.903L192.127 401.55H183.423L166.079 361.166H169.407L152.127 401.55H143.551ZM152.831 391.182L155.071 384.654H179.263L181.503 391.182H152.831ZM202.261 401.55V356.75H232.661L232.597 363.79H208.469L210.389 361.806L210.453 401.55H202.261ZM242.835 401.55V356.75H261.267C265.235 356.75 268.627 357.39 271.443 358.67C274.301 359.95 276.499 361.785 278.035 364.174C279.571 366.563 280.339 369.401 280.339 372.686C280.339 375.971 279.571 378.809 278.035 381.198C276.499 383.587 274.301 385.422 271.443 386.702C268.627 387.982 265.235 388.622 261.267 388.622H247.443L251.155 384.718V401.55H242.835ZM251.155 385.614L247.443 381.582H260.883C264.552 381.582 267.304 380.814 269.139 379.278C271.016 377.699 271.955 375.502 271.955 372.686C271.955 369.827 271.016 367.63 269.139 366.094C267.304 364.558 264.552 363.79 260.883 363.79H247.443L251.155 359.694V385.614ZM312.835 402.19C309.336 402.19 306.115 401.614 303.171 400.462C300.227 399.31 297.667 397.71 295.491 395.662C293.315 393.571 291.629 391.139 290.435 388.366C289.24 385.55 288.643 382.478 288.643 379.15C288.643 375.822 289.24 372.771 290.435 369.998C291.629 367.182 293.315 364.75 295.491 362.702C297.667 360.611 300.227 358.99 303.171 357.838C306.115 356.686 309.315 356.11 312.771 356.11C316.269 356.11 319.469 356.686 322.371 357.838C325.315 358.99 327.875 360.611 330.051 362.702C332.227 364.75 333.912 367.182 335.107 369.998C336.301 372.771 336.899 375.822 336.899 379.15C336.899 382.478 336.301 385.55 335.107 388.366C333.912 391.182 332.227 393.614 330.051 395.662C327.875 397.71 325.315 399.31 322.371 400.462C319.469 401.614 316.291 402.19 312.835 402.19ZM312.771 394.894C315.032 394.894 317.123 394.51 319.043 393.742C320.963 392.974 322.627 391.886 324.035 390.478C325.443 389.027 326.531 387.363 327.299 385.486C328.109 383.566 328.515 381.454 328.515 379.15C328.515 376.846 328.109 374.755 327.299 372.878C326.531 370.958 325.443 369.294 324.035 367.886C322.627 366.435 320.963 365.326 319.043 364.558C317.123 363.79 315.032 363.406 312.771 363.406C310.509 363.406 308.419 363.79 306.499 364.558C304.621 365.326 302.957 366.435 301.507 367.886C300.099 369.294 298.989 370.958 298.179 372.878C297.411 374.755 297.027 376.846 297.027 379.15C297.027 381.411 297.411 383.502 298.179 385.422C298.989 387.342 300.099 389.027 301.507 390.478C302.915 391.886 304.579 392.974 306.499 393.742C308.419 394.51 310.509 394.894 312.771 394.894ZM358.08 401.55V361.742L360.064 363.79H343.296V356.75H381.184V363.79H364.416L366.336 361.742V401.55H358.08ZM411.735 402.19C408.236 402.19 405.015 401.614 402.071 400.462C399.127 399.31 396.567 397.71 394.391 395.662C392.215 393.571 390.529 391.139 389.335 388.366C388.14 385.55 387.543 382.478 387.543 379.15C387.543 375.822 388.14 372.771 389.335 369.998C390.529 367.182 392.215 364.75 394.391 362.702C396.567 360.611 399.127 358.99 402.071 357.838C405.015 356.686 408.215 356.11 411.671 356.11C415.169 356.11 418.369 356.686 421.271 357.838C424.215 358.99 426.775 360.611 428.951 362.702C431.127 364.75 432.812 367.182 434.007 369.998C435.201 372.771 435.799 375.822 435.799 379.15C435.799 382.478 435.201 385.55 434.007 388.366C432.812 391.182 431.127 393.614 428.951 395.662C426.775 397.71 424.215 399.31 421.271 400.462C418.369 401.614 415.191 402.19 411.735 402.19ZM411.671 394.894C413.932 394.894 416.023 394.51 417.943 393.742C419.863 392.974 421.527 391.886 422.935 390.478C424.343 389.027 425.431 387.363 426.199 385.486C427.009 383.566 427.415 381.454 427.415 379.15C427.415 376.846 427.009 374.755 426.199 372.878C425.431 370.958 424.343 369.294 422.935 367.886C421.527 366.435 419.863 365.326 417.943 364.558C416.023 363.79 413.932 363.406 411.671 363.406C409.409 363.406 407.319 363.79 405.399 364.558C403.521 365.326 401.857 366.435 400.407 367.886C398.999 369.294 397.889 370.958 397.079 372.878C396.311 374.755 395.927 376.846 395.927 379.15C395.927 381.411 396.311 383.502 397.079 385.422C397.889 387.342 398.999 389.027 400.407 390.478C401.815 391.886 403.479 392.974 405.399 393.742C407.319 394.51 409.409 394.894 411.671 394.894ZM448.197 401.55V356.75H466.629C470.597 356.75 473.989 357.39 476.805 358.67C479.664 359.95 481.861 361.785 483.397 364.174C484.933 366.563 485.701 369.401 485.701 372.686C485.701 375.971 484.933 378.809 483.397 381.198C481.861 383.587 479.664 385.422 476.805 386.702C473.989 387.982 470.597 388.622 466.629 388.622H452.805L456.517 384.718V401.55H448.197ZM456.517 385.614L452.805 381.582H466.245C469.914 381.582 472.666 380.814 474.501 379.278C476.378 377.699 477.317 375.502 477.317 372.686C477.317 369.827 476.378 367.63 474.501 366.094C472.666 364.558 469.914 363.79 466.245 363.79H452.805L456.517 359.694V385.614ZM496.836 401.55V356.75H527.236L527.172 363.79H503.044L504.964 361.806L505.028 401.55H496.836Z" fill="white"/>
</svg>
